<svg width="499" height="499" viewBox="0 0 499 499" fill="none" xmlns="http://www.w3.org/2000/svg">
<rect x="74" y="137" width="352" height="225" rx="27" fill="#EEEFF1"/>
<rect x="74" y="137" width="352" height="225" rx="27" fill="#EEEFF1"/>
<g filter="url(#filter0_ddi_167_2)">
<path fill-rule="evenodd" clip-rule="evenodd" d="M423.15 347.07C423.088 347.196 423.025 347.322 422.96 347.446C420.399 352.378 416.378 356.399 411.446 358.96C405.594 362 397.906 362 382.53 362H117.47C102.094 362 94.4056 362 88.5537 358.96C83.6223 356.399 79.6015 352.378 77.0398 347.446C76.7205 346.832 76.4347 346.197 76.179 345.535C79.2091 341.735 83.6101 337.334 89.738 331.206L218.206 202.738L218.206 202.738C229.079 191.865 234.515 186.429 240.802 184.441C246.101 182.765 251.787 182.765 257.085 184.441C263.373 186.429 268.809 191.865 279.682 202.738L409.242 332.298L409.242 332.299C415.61 338.666 420.112 343.169 423.15 347.07Z" fill="#EEEFF1"/>
</g>
<g filter="url(#filter1_f_167_2)">
<path fill-rule="evenodd" clip-rule="evenodd" d="M134.944 362H378.944L287.682 270.738C276.809 259.865 271.373 254.429 265.085 252.441C259.787 250.765 254.1 250.765 248.802 252.441C242.515 254.429 237.078 259.865 226.206 270.738L226.206 270.738L134.944 362Z" fill="black" fill-opacity="0.05"/>
</g>
<g filter="url(#filter2_df_167_2)">
<path fill-rule="evenodd" clip-rule="evenodd" d="M415.775 142.852C414.429 141.783 412.977 140.84 411.436 140.04C410.704 139.66 409.944 139.327 409.144 139.036C405.751 137.803 401.638 137.317 395.934 137.125C392.891 137.023 389.395 137.004 385.314 137.001C384.411 137 383.48 137 382.519 137H117.837C112.071 137 107.386 137 103.474 137.16C102.071 137.218 100.767 137.296 99.5479 137.402C95.1034 137.789 91.7913 138.549 88.921 140.04C87.54 140.757 86.2305 141.589 85.0044 142.523C87.8582 146.069 91.8068 150.194 97.1001 155.724L97.1001 155.724L221.248 285.425L221.248 285.425C231.666 296.309 236.876 301.751 242.9 303.742C247.977 305.419 253.426 305.419 258.503 303.742C264.528 301.751 269.737 296.309 280.155 285.425L403.256 156.818L403.257 156.817C408.889 150.933 412.999 146.639 415.887 142.942C415.85 142.912 415.813 142.882 415.775 142.852Z" fill="black" fill-opacity="0.15" shape-rendering="crispEdges"/>
</g>
<g filter="url(#filter3_d_167_2)">
<path fill-rule="evenodd" clip-rule="evenodd" d="M415.979 143.006C415.915 142.955 415.85 142.903 415.786 142.852C414.44 141.783 412.987 140.84 411.446 140.04C405.594 137 397.906 137 382.53 137H117.47C117.47 137 117.47 137 117.47 137C107.196 137 100.354 137 95.1988 137.907C92.6391 138.357 90.4954 139.031 88.5537 140.04C87.3799 140.65 86.2576 141.342 85.1943 142.11C86.8607 143.804 88.7043 145.648 90.738 147.682L220.298 277.242L220.299 277.242C231.171 288.115 236.607 293.551 242.895 295.539C248.193 297.215 253.88 297.215 259.178 295.539C265.465 293.551 270.902 288.115 281.774 277.242L410.242 148.774L410.246 148.77C412.357 146.659 414.263 144.753 415.979 143.006Z" fill="#EEEFF1"/>
</g>
<g filter="url(#filter4_f_167_2)">
<path fill-rule="evenodd" clip-rule="evenodd" d="M373 138L129 138L220.262 229.262C231.135 240.135 236.571 245.571 242.859 247.56C248.157 249.235 253.843 249.235 259.142 247.56C265.429 245.571 270.865 240.135 281.738 229.262L281.738 229.262L373 138Z" fill="white" fill-opacity="0.15"/>
</g>
<g filter="url(#filter5_dii_167_2)">
<rect x="74" y="137" width="352" height="225" rx="27" fill="#EEEFF1" fill-opacity="0.01" shape-rendering="crispEdges"/>
</g>
<g style="mix-blend-mode:overlay">
<path d="M183.526 172H179.571L185.597 154.545H190.352L196.369 172H192.415L188.043 158.534H187.906L183.526 172ZM183.278 165.139H192.619V168.02H183.278V165.139ZM198.47 172V154.545H205.357C206.675 154.545 207.8 154.781 208.732 155.253C209.669 155.719 210.382 156.381 210.871 157.239C211.365 158.091 211.612 159.094 211.612 160.247C211.612 161.406 211.362 162.403 210.862 163.239C210.362 164.068 209.638 164.705 208.689 165.148C207.746 165.591 206.604 165.812 205.263 165.812H200.652V162.847H204.666C205.371 162.847 205.956 162.75 206.422 162.557C206.888 162.364 207.234 162.074 207.462 161.687C207.695 161.301 207.811 160.821 207.811 160.247C207.811 159.668 207.695 159.179 207.462 158.781C207.234 158.383 206.885 158.082 206.413 157.878C205.947 157.668 205.359 157.562 204.649 157.562H202.161V172H198.47ZM207.896 164.057L212.234 172H208.161L203.916 164.057H207.896ZM225.794 160.187C225.675 159.773 225.507 159.406 225.291 159.088C225.075 158.764 224.811 158.491 224.499 158.27C224.192 158.043 223.839 157.869 223.442 157.75C223.05 157.631 222.615 157.571 222.138 157.571C221.246 157.571 220.462 157.793 219.786 158.236C219.115 158.679 218.592 159.324 218.217 160.17C217.842 161.011 217.655 162.04 217.655 163.256C217.655 164.472 217.839 165.506 218.209 166.358C218.578 167.21 219.101 167.861 219.777 168.31C220.453 168.753 221.251 168.974 222.172 168.974C223.007 168.974 223.72 168.827 224.311 168.531C224.908 168.23 225.362 167.807 225.675 167.261C225.993 166.716 226.152 166.071 226.152 165.327L226.902 165.437H222.402V162.659H229.706V164.858C229.706 166.392 229.382 167.71 228.734 168.812C228.087 169.909 227.195 170.756 226.058 171.352C224.922 171.943 223.621 172.239 222.155 172.239C220.518 172.239 219.081 171.878 217.842 171.156C216.604 170.429 215.638 169.398 214.945 168.062C214.257 166.722 213.913 165.131 213.913 163.29C213.913 161.875 214.118 160.614 214.527 159.506C214.942 158.392 215.521 157.449 216.266 156.676C217.01 155.903 217.876 155.315 218.865 154.912C219.854 154.508 220.925 154.307 222.078 154.307C223.067 154.307 223.987 154.452 224.839 154.741C225.692 155.026 226.447 155.429 227.107 155.952C227.771 156.474 228.314 157.097 228.734 157.818C229.155 158.534 229.425 159.324 229.544 160.187H225.794ZM232.478 172V154.545H244.239V157.588H236.168V161.747H243.634V164.79H236.168V168.957H244.273V172H232.478ZM261.773 154.545V172H258.585L250.991 161.014H250.864V172H247.173V154.545H250.412L257.946 165.523H258.099V154.545H261.773ZM264.157 157.588V154.545H278.492V157.588H273.148V172H269.501V157.588H264.157ZM284.543 154.545V172H280.853V154.545H284.543ZM302.179 154.545V172H298.991L291.398 161.014H291.27V172H287.58V154.545H290.818L298.352 165.523H298.506V154.545H302.179ZM308.237 172H304.282L310.308 154.545H315.063L321.08 172H317.126L312.754 158.534H312.617L308.237 172ZM307.989 165.139H317.33V168.02H307.989V165.139Z" fill="black"/>
</g>
<defs>
<filter id="filter0_ddi_167_2" x="36.179" y="147.184" width="426.971" height="258.816" filterUnits="userSpaceOnUse" color-interpolation-filters="sRGB">
<feFlood flood-opacity="0" result="BackgroundImageFix"/>
<feColorMatrix in="SourceAlpha" type="matrix" values="0 0 0 0 0 0 0 0 0 0 0 0 0 0 0 0 0 0 127 0" result="hardAlpha"/>
<feMorphology radius="2" operator="dilate" in="SourceAlpha" result="effect1_dropShadow_167_2"/>
<feOffset dy="4"/>
<feGaussianBlur stdDeviation="2"/>
<feComposite in2="hardAlpha" operator="out"/>
<feColorMatrix type="matrix" values="0 0 0 0 0 0 0 0 0 0 0 0 0 0 0 0 0 0 0.25 0"/>
<feBlend mode="normal" in2="BackgroundImageFix" result="effect1_dropShadow_167_2"/>
<feColorMatrix in="SourceAlpha" type="matrix" values="0 0 0 0 0 0 0 0 0 0 0 0 0 0 0 0 0 0 127 0" result="hardAlpha"/>
<feMorphology radius="20" operator="dilate" in="SourceAlpha" result="effect2_dropShadow_167_2"/>
<feOffset dy="4"/>
<feGaussianBlur stdDeviation="10"/>
<feComposite in2="hardAlpha" operator="out"/>
<feColorMatrix type="matrix" values="0 0 0 0 1 0 0 0 0 1 0 0 0 0 1 0 0 0 0.25 0"/>
<feBlend mode="normal" in2="effect1_dropShadow_167_2" result="effect2_dropShadow_167_2"/>
<feBlend mode="normal" in="SourceGraphic" in2="effect2_dropShadow_167_2" result="shape"/>
<feColorMatrix in="SourceAlpha" type="matrix" values="0 0 0 0 0 0 0 0 0 0 0 0 0 0 0 0 0 0 127 0" result="hardAlpha"/>
<feOffset dy="4"/>
<feGaussianBlur stdDeviation="2.5"/>
<feComposite in2="hardAlpha" operator="arithmetic" k2="-1" k3="1"/>
<feColorMatrix type="matrix" values="0 0 0 0 1 0 0 0 0 1 0 0 0 0 1 0 0 0 0.25 0"/>
<feBlend mode="normal" in2="shape" result="effect3_innerShadow_167_2"/>
</filter>
<filter id="filter1_f_167_2" x="34.9436" y="151.184" width="444" height="310.816" filterUnits="userSpaceOnUse" color-interpolation-filters="sRGB">
<feFlood flood-opacity="0" result="BackgroundImageFix"/>
<feBlend mode="normal" in="SourceGraphic" in2="BackgroundImageFix" result="shape"/>
<feGaussianBlur stdDeviation="50" result="effect1_foregroundBlur_167_2"/>
</filter>
<filter id="filter2_df_167_2" x="80.0044" y="133" width="340.883" height="181" filterUnits="userSpaceOnUse" color-interpolation-filters="sRGB">
<feFlood flood-opacity="0" result="BackgroundImageFix"/>
<feColorMatrix in="SourceAlpha" type="matrix" values="0 0 0 0 0 0 0 0 0 0 0 0 0 0 0 0 0 0 127 0" result="hardAlpha"/>
<feOffset dy="4"/>
<feGaussianBlur stdDeviation="2.5"/>
<feComposite in2="hardAlpha" operator="out"/>
<feColorMatrix type="matrix" values="0 0 0 0 0 0 0 0 0 0 0 0 0 0 0 0 0 0 0.15 0"/>
<feBlend mode="normal" in2="BackgroundImageFix" result="effect1_dropShadow_167_2"/>
<feBlend mode="normal" in="SourceGraphic" in2="effect1_dropShadow_167_2" result="shape"/>
<feGaussianBlur stdDeviation="2" result="effect2_foregroundBlur_167_2"/>
</filter>
<filter id="filter3_d_167_2" x="80.1943" y="136" width="340.784" height="169.796" filterUnits="userSpaceOnUse" color-interpolation-filters="sRGB">
<feFlood flood-opacity="0" result="BackgroundImageFix"/>
<feColorMatrix in="SourceAlpha" type="matrix" values="0 0 0 0 0 0 0 0 0 0 0 0 0 0 0 0 0 0 127 0" result="hardAlpha"/>
<feOffset dy="4"/>
<feGaussianBlur stdDeviation="2.5"/>
<feComposite in2="hardAlpha" operator="out"/>
<feColorMatrix type="matrix" values="0 0 0 0 0 0 0 0 0 0 0 0 0 0 0 0 0 0 0.05 0"/>
<feBlend mode="normal" in2="BackgroundImageFix" result="effect1_dropShadow_167_2"/>
<feBlend mode="normal" in="SourceGraphic" in2="effect1_dropShadow_167_2" result="shape"/>
</filter>
<filter id="filter4_f_167_2" x="29" y="38" width="444" height="310.816" filterUnits="userSpaceOnUse" color-interpolation-filters="sRGB">
<feFlood flood-opacity="0" result="BackgroundImageFix"/>
<feBlend mode="normal" in="SourceGraphic" in2="BackgroundImageFix" result="shape"/>
<feGaussianBlur stdDeviation="50" result="effect1_foregroundBlur_167_2"/>
</filter>
<filter id="filter5_dii_167_2" x="68" y="133" width="364" height="239" filterUnits="userSpaceOnUse" color-interpolation-filters="sRGB">
<feFlood flood-opacity="0" result="BackgroundImageFix"/>
<feColorMatrix in="SourceAlpha" type="matrix" values="0 0 0 0 0 0 0 0 0 0 0 0 0 0 0 0 0 0 127 0" result="hardAlpha"/>
<feMorphology radius="2" operator="dilate" in="SourceAlpha" result="effect1_dropShadow_167_2"/>
<feOffset dy="4"/>
<feGaussianBlur stdDeviation="2"/>
<feComposite in2="hardAlpha" operator="out"/>
<feColorMatrix type="matrix" values="0 0 0 0 0 0 0 0 0 0 0 0 0 0 0 0 0 0 0.05 0"/>
<feBlend mode="normal" in2="BackgroundImageFix" result="effect1_dropShadow_167_2"/>
<feBlend mode="normal" in="SourceGraphic" in2="effect1_dropShadow_167_2" result="shape"/>
<feColorMatrix in="SourceAlpha" type="matrix" values="0 0 0 0 0 0 0 0 0 0 0 0 0 0 0 0 0 0 127 0" result="hardAlpha"/>
<feMorphology radius="2" operator="erode" in="SourceAlpha" result="effect2_innerShadow_167_2"/>
<feOffset dy="-4"/>
<feGaussianBlur stdDeviation="2"/>
<feComposite in2="hardAlpha" operator="arithmetic" k2="-1" k3="1"/>
<feColorMatrix type="matrix" values="0 0 0 0 0 0 0 0 0 0 0 0 0 0 0 0 0 0 0.05 0"/>
<feBlend mode="normal" in2="shape" result="effect2_innerShadow_167_2"/>
<feColorMatrix in="SourceAlpha" type="matrix" values="0 0 0 0 0 0 0 0 0 0 0 0 0 0 0 0 0 0 127 0" result="hardAlpha"/>
<feOffset dy="-2"/>
<feGaussianBlur stdDeviation="2"/>
<feComposite in2="hardAlpha" operator="arithmetic" k2="-1" k3="1"/>
<feColorMatrix type="matrix" values="0 0 0 0 0 0 0 0 0 0 0 0 0 0 0 0 0 0 0.25 0"/>
<feBlend mode="normal" in2="effect2_innerShadow_167_2" result="effect3_innerShadow_167_2"/>
</filter>
</defs>
</svg>
