<svg width="29" height="42" viewBox="0 0 29 42" fill="none" xmlns="http://www.w3.org/2000/svg">
<path d="M26.0511 16.8483C27.0826 16.8483 27.9423 16.8139 28.63 16.7452V17.4329C27.4838 17.708 26.5783 18.7052 25.9135 20.4245L17.8328 41.2623H17.2826L8.89249 19.6336C8.34232 18.2123 7.18453 17.4695 6.15295 17.4236L6.13242 17.0764L6.15295 16.7292C7.06991 16.798 8.66325 16.8483 10.1992 16.8483C12.1706 16.8483 14.1716 16.8139 15.1344 16.7452L15.1667 17.089L15.1989 17.4329C14.3278 17.4787 13.099 17.5934 12.7093 17.7768C12.3425 17.9372 12.1592 18.2467 12.1592 18.7052C12.1592 19.0949 12.2967 19.6336 12.5718 20.3213L18.7956 36.8609L24.4005 22.3157C24.859 21.0778 25.0882 20.1379 25.0882 19.496C25.0882 18.7854 24.8361 18.2696 24.3318 17.9487C23.8504 17.6277 23.1053 17.4558 22.0967 17.4329V16.7452C23.4033 16.8139 24.7215 16.8483 26.0511 16.8483Z" fill="#D9D9D9"/>
<path d="M11.622 11.8625C14.1437 12.2064 15.9432 12.94 17.0206 14.0632C18.0981 15.1636 18.6368 16.4932 18.6368 18.052C18.6368 19.3587 18.3044 20.5163 17.6396 21.525C16.9748 22.5336 16.0234 23.3245 14.7855 23.8976C13.5477 24.4478 12.0805 24.7229 10.3842 24.7229C9.76521 24.7229 9.23796 24.7114 8.80241 24.6885C7.33527 24.6426 5.89107 24.6197 4.46978 24.6197C2.59002 24.6197 1.16874 24.6541 0.205933 24.7229V24.0351C1.03119 23.9893 1.62722 23.8976 1.994 23.7601C2.38371 23.6225 2.64733 23.3589 2.78487 22.9692C2.92242 22.5795 2.99119 21.9491 2.99119 21.078V4.02256C2.99119 3.15145 2.92242 2.52104 2.78487 2.13134C2.64733 1.74163 2.38371 1.478 1.994 1.34046C1.62722 1.20292 1.03119 1.11122 0.205933 1.06537V0.377655C1.16874 0.446426 2.5671 0.480811 4.40101 0.480811L8.11469 0.446426C8.55024 0.423502 9.04311 0.41204 9.59328 0.41204C11.9315 0.41204 13.7196 0.904905 14.9575 1.89063C16.2183 2.87636 16.8487 4.18303 16.8487 5.81062C16.8487 7.14021 16.4246 8.33226 15.5764 9.38676C14.7512 10.4413 13.433 11.2436 11.622 11.7938V11.8625ZM8.73363 1.06537C8.02299 1.06537 7.48428 1.14561 7.1175 1.30607C6.77364 1.46654 6.53294 1.75309 6.39539 2.16572C6.25785 2.57835 6.18908 3.1973 6.18908 4.02256V11.7938H8.49293C10.3727 11.7938 11.6794 11.2894 12.4129 10.2808C13.1694 9.24921 13.5477 7.88524 13.5477 6.18887C13.5477 4.46957 13.1694 3.18584 12.4129 2.33765C11.6564 1.48946 10.43 1.06537 8.73363 1.06537ZM8.76802 23.932C13.0548 23.932 15.1982 21.9261 15.1982 17.9145C15.1982 16.1035 14.7053 14.728 13.7196 13.7882C12.7568 12.8483 11.2094 12.3783 9.07749 12.3783H6.18908V21.078C6.18908 21.9032 6.25785 22.5107 6.39539 22.9004C6.53294 23.2901 6.77364 23.5652 7.1175 23.7257C7.48428 23.8632 8.03445 23.932 8.76802 23.932Z" fill="#D9D9D9"/>
</svg>
