<svg id="Layer_1" data-name="Layer 1" xmlns="http://www.w3.org/2000/svg" viewBox="0 0 50 50"><defs><style>.cls-1{fill:#00005b;}.cls-2{fill:#99f;}</style></defs><g id="Layer_2" data-name="Layer 2"><g id="Surfaces"><g id="Video_Audio_Surface" data-name="Video Audio Surface"><g id="Outline_no_shadow" data-name="Outline no shadow"><path class="cls-1" d="M9.12,1H40.88a8.7,8.7,0,0,1,8.71,8.71V40.26A8.7,8.7,0,0,1,40.88,49H9.12A8.7,8.7,0,0,1,.41,40.26V9.74A8.7,8.7,0,0,1,9.12,1Z"/></g></g></g><g id="Outlined_Mnemonics_Logos" data-name="Outlined Mnemonics Logos"><g id="Ae"><path class="cls-2" d="M20.16,29.71H12.54L11,34.55a.36.36,0,0,1-.39.28H6.75c-.23,0-.29-.12-.23-.36l6.6-18.91c.06-.21.12-.39.2-.64a7.31,7.31,0,0,0,.12-1.33.22.22,0,0,1,.17-.23h5.31c.14,0,.24.06.26.17l7.48,21c.06.22,0,.32-.21.32H22.17a.31.31,0,0,1-.33-.22Zm-6.43-4.07h5.21c-.13-.44-.29-.95-.48-1.48S18.1,23,17.91,22.4l-.59-1.89c-.21-.63-.39-1.23-.56-1.82s-.3-1.11-.45-1.6h0a25.67,25.67,0,0,1-.69,2.64c-.31,1-.62,2-.95,3S14,24.77,13.73,25.64Z"/><path class="cls-2" d="M38.81,27.83h-6.5A4.62,4.62,0,0,0,33,29.65a3.31,3.31,0,0,0,1.49,1.23,6.39,6.39,0,0,0,2.63.51,12.72,12.72,0,0,0,2.13-.22A8.39,8.39,0,0,0,41,30.7c.1-.09.17-.05.17.16V34a.7.7,0,0,1,0,.25.47.47,0,0,1-.14.14A8.39,8.39,0,0,1,39,35a14.12,14.12,0,0,1-2.91.24,9.72,9.72,0,0,1-3.93-.71,6.88,6.88,0,0,1-2.58-2,7.53,7.53,0,0,1-1.42-2.68,10.75,10.75,0,0,1-.43-3,10.34,10.34,0,0,1,.52-3.26,8.28,8.28,0,0,1,1.53-2.81,7.62,7.62,0,0,1,2.48-1.95,7.74,7.74,0,0,1,3.42-.63,7.41,7.41,0,0,1,3.18.63A5.7,5.7,0,0,1,41,20.53a7.7,7.7,0,0,1,1.23,2.34,8,8,0,0,1,.39,2.5c0,.49,0,.92,0,1.31s-.06.68-.08.86a.32.32,0,0,1-.29.27l-.68,0a9.77,9.77,0,0,1-1.19.06C39.83,27.91,39.34,27.83,38.81,27.83Zm-6.5-3h4.33c.53,0,.92,0,1.17,0a1.07,1.07,0,0,0,.47-.17v-.2a2.13,2.13,0,0,0-.13-.76,2.71,2.71,0,0,0-2.66-1.89,2.91,2.91,0,0,0-2.73,1.56A4.53,4.53,0,0,0,32.31,24.84Z"/></g></g></g></svg>