<svg id="Layer_1" data-name="Layer 1" xmlns="http://www.w3.org/2000/svg" viewBox="0 0 50 50"><defs><style>.cls-1{fill:#300;}.cls-2{fill:#ff9a00;}</style></defs><g id="Layer_2" data-name="Layer 2"><g id="Surfaces"><g id="Drawing_Surface" data-name="Drawing Surface"><g id="Outline_no_shadow" data-name="Outline no shadow"><path class="cls-1" d="M9.12,1H40.88a8.7,8.7,0,0,1,8.71,8.71V40.26A8.7,8.7,0,0,1,40.88,49H9.12A8.7,8.7,0,0,1,.41,40.26V9.74A8.7,8.7,0,0,1,9.12,1Z"/></g></g></g><g id="Outlined_Mnemonics_Logos" data-name="Outlined Mnemonics Logos"><g id="Ai"><path class="cls-2" d="M24.24,29.79H16.62l-1.56,4.82a.36.36,0,0,1-.39.29H10.82c-.22,0-.28-.13-.22-.37l6.59-19c.07-.2.13-.43.21-.67a7.31,7.31,0,0,0,.12-1.33.2.2,0,0,1,.17-.23H23c.17,0,.25.06.27.17l7.48,21.1c.06.22,0,.33-.21.33H26.25a.32.32,0,0,1-.33-.23Zm-6.43-4.15H23c-.12-.44-.28-.95-.47-1.48S22.17,23,22,22.4s-.39-1.25-.6-1.89-.39-1.23-.55-1.82l-.45-1.6h0a25.74,25.74,0,0,1-.7,2.64c-.3,1-.61,2-.94,3s-.59,2-.9,2.87Z"/><path class="cls-2" d="M35.2,16.8a2.49,2.49,0,0,1-1.82-.71,2.68,2.68,0,0,1-.7-1.89,2.42,2.42,0,0,1,.74-1.82,2.63,2.63,0,0,1,1.82-.72,2.47,2.47,0,0,1,1.87.72,2.54,2.54,0,0,1,.67,1.82,2.56,2.56,0,0,1-.71,1.89A2.38,2.38,0,0,1,35.2,16.8ZM32.91,34.59V18.81c0-.2.08-.28.26-.28h4.06c.19,0,.27.1.27.28V34.59c0,.22-.08.33-.27.33h-4A.29.29,0,0,1,32.91,34.59Z"/></g></g></g></svg>