<svg id="Layer_1" data-name="Layer 1" xmlns="http://www.w3.org/2000/svg" viewBox="0 0 50 50"><defs><style>.cls-1{fill:#001e36;}.cls-2{fill:#31a8ff;}</style></defs><g id="Layer_2" data-name="Layer 2"><path class="cls-1" d="M9.13,1H40.87a8.7,8.7,0,0,1,8.71,8.7V40.26A8.7,8.7,0,0,1,40.87,49H9.13a8.7,8.7,0,0,1-8.71-8.7V9.74A8.7,8.7,0,0,1,9.13,1Z"/><g id="Lr"><path class="cls-2" d="M26.23,34.91h-13c-.23,0-.33-.11-.33-.36V13.61a.25.25,0,0,1,.23-.28h4.09a.2.2,0,0,1,.23.17V30.75h9.47c.21,0,.26.1.23.29l-.6,3.56a.39.39,0,0,1-.11.25A.53.53,0,0,1,26.23,34.91Z"/><path class="cls-2" d="M29.51,18.52h3.58a.43.43,0,0,1,.42.33,1.36,1.36,0,0,1,.17.48c0,.21.08.42.1.63s0,.48,0,.73A8.11,8.11,0,0,1,36,18.92a6.06,6.06,0,0,1,3-.73.27.27,0,0,1,.29.23v4.09c0,.17-.1.23-.33.23a8.56,8.56,0,0,0-3.87.69,3.49,3.49,0,0,0-1.11.76V34.64c0,.21-.08.29-.27.29h-4a.27.27,0,0,1-.32-.25V23.26c0-.5,0-1,0-1.54s0-1.07,0-1.59-.06-.9-.11-1.36a.19.19,0,0,1,.13-.23s.06,0,.1,0Z"/></g></g></svg>