<svg id="Layer_1" data-name="Layer 1" xmlns="http://www.w3.org/2000/svg" viewBox="0 0 50 50"><defs><style>.cls-1{fill:#00005b;}.cls-2{fill:#99f;}</style></defs><g id="Layer_2" data-name="Layer 2"><g id="Surfaces"><g id="Video_Audio_Surface" data-name="Video Audio Surface"><g id="Outline_no_shadow" data-name="Outline no shadow"><path class="cls-1" d="M9.12,1H40.88a8.7,8.7,0,0,1,8.71,8.71V40.26A8.7,8.7,0,0,1,40.88,49H9.12A8.7,8.7,0,0,1,.41,40.26V9.74A8.7,8.7,0,0,1,9.12,1Z"/></g></g></g><g id="Outlined_Mnemonics_Logos" data-name="Outlined Mnemonics Logos"><g id="Pr"><path class="cls-2" d="M12.09,34.65V13.57c0-.15.06-.23.21-.23.35,0,.67,0,1.14,0l1.56,0,1.78,0c.64,0,1.25,0,1.87,0a12.07,12.07,0,0,1,4.22.63,7.39,7.39,0,0,1,2.74,1.68,6.57,6.57,0,0,1,1.5,2.34,7.76,7.76,0,0,1,.47,2.66,7.33,7.33,0,0,1-1.23,4.37,7,7,0,0,1-3.3,2.5,13.32,13.32,0,0,1-4.61.69c-.49,0-.82,0-1,0s-.49,0-.88,0v6.58a.26.26,0,0,1-.23.29h-4C12.17,34.92,12.09,34.83,12.09,34.65ZM16.56,17.3v6.88c.29,0,.55,0,.8,0h1.08a7.56,7.56,0,0,0,2.36-.37,3.47,3.47,0,0,0,1.68-1.08,3.18,3.18,0,0,0,.64-2.11,3.39,3.39,0,0,0-.48-1.83,2.91,2.91,0,0,0-1.43-1.16,6,6,0,0,0-2.42-.41c-.53,0-1,0-1.39,0a4.79,4.79,0,0,0-.84,0Z"/><path class="cls-2" d="M30.45,18.48H34a.48.48,0,0,1,.43.33,2.23,2.23,0,0,1,.12.51c0,.21.08.44.1.64s0,.47,0,.74a7.62,7.62,0,0,1,2.19-1.76,6.3,6.3,0,0,1,3.12-.8.26.26,0,0,1,.29.22v4.08c0,.16-.11.22-.33.22a9.19,9.19,0,0,0-2.22.21,8.83,8.83,0,0,0-1.72.55,3.25,3.25,0,0,0-1,.76V34.63c0,.2-.08.29-.27.29h-4a.29.29,0,0,1-.33-.25V23.24c0-.49,0-1,0-1.54s0-1.06,0-1.6a13,13,0,0,0-.09-1.39.21.21,0,0,1,.15-.23s0,0,.06,0Z"/></g></g></g></svg>