<svg id="Layer_1" data-name="Layer 1" xmlns="http://www.w3.org/2000/svg" viewBox="0 0 50 50"><defs><style>.cls-1{fill:#001e36;}.cls-2{fill:#31a8ff;}</style></defs><g id="Layer_2" data-name="Layer 2"><g id="Surfaces"><g id="Photo_Surface" data-name="Photo Surface"><g id="Outline_no_shadow" data-name="Outline no shadow"><path class="cls-1" d="M9.12,1H40.88a8.7,8.7,0,0,1,8.71,8.71V40.26A8.7,8.7,0,0,1,40.88,49H9.12A8.7,8.7,0,0,1,.41,40.26V9.74A8.7,8.7,0,0,1,9.12,1Z"/></g></g></g><g id="Outlined_Mnemonics_Logos" data-name="Outlined Mnemonics Logos"><g id="Ps"><path class="cls-2" d="M11.48,34.65V13.57c0-.15.06-.23.2-.23.35,0,.68,0,1.15,0l1.56,0,1.78,0c.63,0,1.25,0,1.86,0a12,12,0,0,1,4.22.63A7.43,7.43,0,0,1,25,15.53a6.57,6.57,0,0,1,1.5,2.34A8,8,0,0,1,27,20.53a7.33,7.33,0,0,1-1.23,4.37,7.07,7.07,0,0,1-3.3,2.5,13.32,13.32,0,0,1-4.61.69c-.49,0-.82,0-1,0s-.49,0-.88,0v6.58a.26.26,0,0,1-.22.29h-4Q11.48,34.92,11.48,34.65ZM15.94,17.3v6.88c.29,0,.56,0,.8,0h1.09a7.56,7.56,0,0,0,2.36-.37,3.57,3.57,0,0,0,1.68-1.08,3.18,3.18,0,0,0,.63-2.11A3.38,3.38,0,0,0,22,18.83a3,3,0,0,0-1.43-1.16,6,6,0,0,0-2.42-.41c-.54,0-1,0-1.4,0a4.83,4.83,0,0,0-.84,0Z"/><path class="cls-2" d="M39.75,22.93a7.33,7.33,0,0,0-2-.7A10.94,10.94,0,0,0,35.49,22a4.23,4.23,0,0,0-1.23.14,1,1,0,0,0-.63.41,1,1,0,0,0-.17.55.89.89,0,0,0,.21.54,2.33,2.33,0,0,0,.69.55c.47.25,1,.47,1.46.68A14.65,14.65,0,0,1,39,26.33,4.79,4.79,0,0,1,40.59,28a4.41,4.41,0,0,1,.47,2.11,4.72,4.72,0,0,1-.8,2.73A5.11,5.11,0,0,1,38,34.69a9.37,9.37,0,0,1-3.71.66,14.57,14.57,0,0,1-2.79-.27,8.2,8.2,0,0,1-2.09-.66.39.39,0,0,1-.22-.38V30.47a.22.22,0,0,1,.08-.18c.06-.05.12,0,.19,0a8.47,8.47,0,0,0,2.54,1,9.21,9.21,0,0,0,2.41.31,3.79,3.79,0,0,0,1.7-.29,1,1,0,0,0,.56-.86,1.11,1.11,0,0,0-.49-.82,8.75,8.75,0,0,0-2-1,12.27,12.27,0,0,1-2.91-1.48,5.22,5.22,0,0,1-1.56-1.74,4.35,4.35,0,0,1-.47-2.09,4.84,4.84,0,0,1,.7-2.48A5,5,0,0,1,32.05,19a7.94,7.94,0,0,1,3.62-.72,18.08,18.08,0,0,1,2.54.18A7.46,7.46,0,0,1,40,19a.35.35,0,0,1,.2.18,1,1,0,0,1,0,.25v3.34a.25.25,0,0,1-.1.2A.56.56,0,0,1,39.75,22.93Z"/></g></g></g></svg>