<svg id="Layer_1" data-name="Layer 1" xmlns="http://www.w3.org/2000/svg" viewBox="0 0 50 50"><defs><style>.cls-1{fill:#470137;}.cls-2{fill:#ff61f6;}</style></defs><g id="Layer_2" data-name="Layer 2"><g id="Surfaces"><g id="UI_UX_Surface" data-name="UI UX Surface"><g id="Outline_no_shadow" data-name="Outline no shadow"><path class="cls-1" d="M9.12,1H40.88a8.7,8.7,0,0,1,8.71,8.71V40.26A8.7,8.7,0,0,1,40.88,49H9.12A8.7,8.7,0,0,1,.41,40.26V9.74A8.7,8.7,0,0,1,9.12,1Z"/></g></g></g><g id="Outlined_Mnemonics_Logos" data-name="Outlined Mnemonics Logos"><g id="Xd"><path class="cls-2" d="M26.27,13.63,20.12,23.77l6.56,10.76a.34.34,0,0,1,0,.24c0,.08-.1,0-.22,0H21.8c-.32,0-.55,0-.69-.22-.43-.86-.88-1.7-1.31-2.56s-.91-1.7-1.4-2.58l-1.47-2.67h0c-.43.88-.9,1.76-1.38,2.65s-.94,1.76-1.39,2.62-.94,1.74-1.41,2.58c-.08.2-.25.22-.47.22H7.73c-.08,0-.14,0-.14-.06a.24.24,0,0,1,0-.22L14,24.12,7.79,13.61c-.06-.08-.08-.17,0-.21a.23.23,0,0,1,.2-.08H12.6a1.19,1.19,0,0,1,.29,0,.74.74,0,0,1,.21.19c.39.88.84,1.76,1.31,2.64s1,1.74,1.47,2.6.95,1.72,1.38,2.6h0c.43-.9.88-1.78,1.33-2.64S19.55,17,20,16.17s.92-1.74,1.37-2.58a.3.3,0,0,1,.39-.25h4.33a.18.18,0,0,1,.22.15s0,.1-.06.14Z"/><path class="cls-2" d="M35.74,35.24a10.12,10.12,0,0,1-4.41-.92,7.11,7.11,0,0,1-3.09-2.78,8.87,8.87,0,0,1-1.13-4.68,8.41,8.41,0,0,1,4.38-7.49,10.51,10.51,0,0,1,5.19-1.19,3.82,3.82,0,0,1,.43,0l.63,0V11.76a.19.19,0,0,1,.21-.22h4.16a.18.18,0,0,1,.2.14V31.23c0,.37,0,.78,0,1.23s.06.84.09,1.19a.33.33,0,0,1-.21.32,15.87,15.87,0,0,1-3.34,1A18.45,18.45,0,0,1,35.74,35.24Zm2-4.09v-9a5.3,5.3,0,0,0-.55-.1c-.22,0-.45,0-.68,0a5,5,0,0,0-2.31.53,4.25,4.25,0,0,0-2.42,4.12,5.64,5.64,0,0,0,.35,2.11,3.94,3.94,0,0,0,.92,1.45,3.49,3.49,0,0,0,1.39.82,5.27,5.27,0,0,0,1.71.27c.3,0,.59,0,.86,0A1.8,1.8,0,0,0,37.74,31.15Z"/></g></g></g></svg>