<svg xmlns="http://www.w3.org/2000/svg" viewBox="0 0 301.67 328.15"><defs><style>.cls-1{fill:none;stroke:#9ed4ae;stroke-miterlimit:10;}.cls-2{fill:#72bda3;}.cls-3{fill:#416166;}.cls-4{fill:#ef599d;}.cls-5{fill:#0b3948;}.cls-6{fill:#9ed4ae;}</style></defs><g id="Layer_2" data-name="Layer 2"><g id="Layer_1-2" data-name="Layer 1"><line class="cls-1" x1="122.98" y1="32.52" x2="243.26" y2="32.52"/><line class="cls-1" x1="122.7" y1="30.14" x2="127.09" y2="32.52"/><line class="cls-1" x1="122.7" y1="34.86" x2="127.09" y2="32.48"/><line class="cls-1" x1="245.12" y1="110.31" x2="242.74" y2="105.91"/><line class="cls-1" x1="240.4" y1="110.31" x2="242.77" y2="105.91"/><path class="cls-2" d="M5,0H118a5,5,0,0,1,5,5V25.13a0,0,0,0,1,0,0H0a0,0,0,0,1,0,0V5A5,5,0,0,1,5,0Z"/><path class="cls-3" d="M0,25.13H123a0,0,0,0,1,0,0V42.45a55,55,0,0,1-55,55H5a5,5,0,0,1-5-5V25.13A0,0,0,0,1,0,25.13Z"/><rect class="cls-4" x="13.27" y="36.38" width="75.86" height="10.29" rx="5"/><rect class="cls-4" x="13.27" y="53.66" width="91.61" height="10.29" rx="5"/><rect class="cls-4" x="13.27" y="70.93" width="59.46" height="10.29" rx="5"/><path class="cls-2" d="M183.69,109.71h113a5,5,0,0,1,5,5v20.13a0,0,0,0,1,0,0h-123a0,0,0,0,1,0,0V114.71A5,5,0,0,1,183.69,109.71Z"/><path class="cls-3" d="M178.69,134.84h123a0,0,0,0,1,0,0V166a5,5,0,0,1-5,5h-98a20,20,0,0,1-20-20V134.84A0,0,0,0,1,178.69,134.84Z"/><rect class="cls-4" x="191.96" y="146.09" width="75.86" height="10.29" rx="5"/><line class="cls-1" x1="242.76" y1="32.36" x2="242.76" y2="109.71"/><rect class="cls-3" x="106.81" y="224.64" width="75.14" height="30.86"/><rect class="cls-5" x="112.07" y="233.9" width="35.2" height="3.7"/><circle class="cls-6" cx="157.25" cy="236.26" r="2.38"/><circle class="cls-2" cx="165.17" cy="236.26" r="2.38"/><circle class="cls-4" cx="173.1" cy="236.26" r="2.38"/><circle class="cls-4" cx="157.25" cy="243.88" r="2.38"/><circle class="cls-6" cx="165.17" cy="243.88" r="2.38"/><circle class="cls-2" cx="173.1" cy="243.88" r="2.38"/><rect class="cls-5" x="112.07" y="241.99" width="35.2" height="3.7"/><rect class="cls-3" x="106.81" y="260.97" width="75.14" height="30.86"/><rect class="cls-5" x="112.07" y="270.23" width="35.2" height="3.7"/><circle class="cls-6" cx="173.1" cy="280.16" r="2.38"/><circle class="cls-2" cx="165.17" cy="280.21" r="2.38"/><circle class="cls-4" cx="173.1" cy="272.59" r="2.38"/><circle class="cls-4" cx="165.17" cy="272.59" r="2.38"/><circle class="cls-6" cx="157.25" cy="280.69" r="2.38"/><circle class="cls-2" cx="157.25" cy="272.59" r="2.38"/><rect class="cls-5" x="112.07" y="278.31" width="35.2" height="3.7"/><line class="cls-1" x1="180.41" y1="323.61" x2="243.26" y2="323.61"/><rect class="cls-3" x="106.81" y="297.29" width="75.14" height="30.86"/><rect class="cls-5" x="112.07" y="306.56" width="35.2" height="3.7"/><circle class="cls-6" cx="173.1" cy="308.91" r="2.38"/><circle class="cls-2" cx="165.17" cy="316.53" r="2.38"/><circle class="cls-4" cx="157.25" cy="308.91" r="2.38"/><circle class="cls-4" cx="173.1" cy="316.49" r="2.38"/><circle class="cls-6" cx="165.17" cy="308.91" r="2.38"/><circle class="cls-2" cx="157.25" cy="316.53" r="2.38"/><rect class="cls-5" x="112.07" y="314.64" width="35.2" height="3.7"/><line class="cls-1" x1="242.76" y1="171" x2="242.76" y2="323.41"/></g></g></svg>