<?xml version="1.0" standalone="no"?>
<!DOCTYPE svg PUBLIC "-//W3C//DTD SVG 20010904//EN"
 "http://www.w3.org/TR/2001/REC-SVG-20010904/DTD/svg10.dtd">
<svg version="1.0" xmlns="http://www.w3.org/2000/svg"
 width="1344.000000pt" height="1344.000000pt" viewBox="0 0 1344.000000 1344.000000"
 preserveAspectRatio="xMidYMid meet">
<metadata>
Created by potrace 1.14, written by Peter Selinger 2001-2017
</metadata>
<g transform="translate(0.000000,1344.000000) scale(0.100000,-0.100000)"
fill="#000000" stroke="none">
<path d="M2148 13307 c-3 -11 -3 -143 1 -192 1 -17 9 -20 49 -21 78 -2 146 -7
155 -12 5 -2 32 -5 60 -7 59 -3 170 -22 207 -36 14 -5 34 -10 45 -12 28 -5 53
-15 112 -45 117 -58 188 -162 220 -322 7 -36 11 -54 13 -60 1 -3 1 -15 0 -27
-1 -13 2 -28 5 -34 4 -6 10 -49 13 -97 8 -127 8 -5931 -1 -6032 -4 -47 -9 -94
-11 -105 -2 -11 -7 -40 -10 -65 -24 -175 -93 -297 -207 -363 -92 -54 -311
-107 -451 -111 -16 -1 -28 -3 -28 -6 0 -3 -28 -5 -63 -5 -115 1 -111 5 -112
-118 l0 -107 100 5 c221 12 350 16 567 19 124 2 232 7 239 11 8 5 10 4 5 -3
-5 -9 0 -9 18 -2 16 6 27 6 31 0 4 -6 17 -7 31 -4 24 6 87 8 109 4 6 -1 14 -2
19 -1 30 6 153 4 164 -3 6 -4 17 -4 24 0 16 10 88 11 88 2 0 -4 10 -4 23 0 28
9 88 8 105 -2 7 -4 12 -2 12 4 0 8 6 8 20 0 15 -8 20 -8 20 1 0 8 4 8 13 1 6
-5 21 -6 31 -3 11 4 39 4 63 1 23 -4 43 -4 43 1 0 4 15 4 33 0 17 -4 44 -4 59
0 15 4 29 5 32 2 4 -5 188 -9 703 -16 68 -1 123 -5 123 -9 0 -4 11 -3 24 2 13
5 26 6 29 3 7 -6 171 -11 453 -12 l231 -1 29 -72 c15 -40 29 -75 29 -78 0 -3
12 -34 26 -70 15 -36 41 -103 59 -150 18 -47 36 -94 41 -105 33 -76 56 -145
51 -149 -3 -3 0 -6 6 -6 7 0 12 -6 12 -12 0 -12 49 -146 70 -193 5 -11 21 -51
35 -90 15 -38 42 -108 61 -155 19 -47 34 -91 34 -97 0 -7 4 -13 8 -13 5 0 9
-6 9 -12 0 -11 46 -133 98 -263 4 -11 9 -25 10 -31 2 -6 10 -27 18 -45 17 -37
115 -291 120 -309 0 -3 15 -40 33 -83 18 -43 36 -91 39 -107 4 -17 10 -30 15
-30 4 0 10 -12 13 -27 3 -16 14 -46 23 -68 10 -22 19 -45 20 -51 1 -6 9 -27
17 -45 8 -19 37 -92 65 -164 27 -71 53 -139 57 -150 5 -11 9 -22 10 -25 1 -3
7 -18 14 -35 6 -16 30 -77 52 -135 23 -58 45 -114 49 -125 5 -11 28 -69 51
-130 61 -161 86 -226 100 -260 7 -16 13 -32 14 -35 1 -3 7 -18 14 -35 6 -16
19 -50 28 -75 9 -25 27 -69 40 -98 12 -29 23 -56 23 -60 0 -4 22 -63 49 -132
27 -69 70 -179 96 -245 26 -66 52 -131 57 -145 6 -14 12 -30 13 -36 2 -6 19
-51 38 -100 20 -49 52 -132 72 -184 20 -52 40 -104 45 -115 5 -11 31 -78 58
-150 28 -71 53 -139 57 -150 5 -11 7 -23 7 -28 -1 -4 2 -7 8 -7 5 0 10 -10 10
-23 0 -12 6 -31 13 -42 7 -11 19 -38 26 -60 8 -22 21 -56 29 -75 9 -19 16 -37
17 -40 3 -25 60 -162 69 -167 6 -4 48 -8 94 -8 l82 0 11 35 c6 19 15 46 21 60
18 42 25 61 71 180 24 63 48 124 52 135 5 11 9 22 10 25 1 3 5 14 10 25 4 11
23 61 42 110 19 50 38 99 43 110 4 11 18 47 30 80 13 33 29 74 36 90 7 17 36
91 64 165 29 74 76 196 104 270 60 155 68 174 66 178 0 1 6 15 14 31 13 25 41
94 50 126 2 6 8 21 13 35 18 43 98 245 99 250 0 3 4 14 9 25 4 11 22 58 41
105 18 47 38 99 45 115 7 17 13 35 14 40 2 6 16 44 33 85 37 93 56 144 58 150
0 3 5 16 11 30 6 14 18 42 26 62 8 20 13 39 9 42 -3 3 0 6 6 6 7 0 11 3 10 8
-2 9 0 13 67 178 20 50 37 97 39 105 1 8 7 23 13 34 6 11 16 38 23 60 7 22 16
45 20 50 4 6 11 21 15 35 4 14 32 88 63 165 30 77 55 145 55 152 0 7 4 13 9
13 4 0 8 6 8 14 0 12 64 184 90 241 5 11 32 81 60 155 29 74 58 149 66 167 8
17 14 35 14 40 0 6 7 24 16 42 9 17 17 37 18 44 2 7 7 21 11 32 33 79 75 192
75 202 0 7 4 13 8 13 4 0 13 17 19 37 10 35 162 432 182 478 5 11 35 88 66
170 32 83 63 164 70 180 7 17 30 75 50 130 20 55 40 105 43 110 4 6 7 15 9 20
4 20 35 100 54 141 10 24 19 49 19 56 0 8 4 18 8 24 8 9 39 87 63 157 7 20 16
37 19 37 3 0 6 8 7 19 1 10 17 56 36 102 36 89 111 281 112 289 1 3 9 22 18
44 9 21 17 40 17 42 0 1 5 15 12 31 6 15 12 30 12 33 2 9 78 204 96 245 9 22
21 51 25 65 12 39 147 315 157 318 4 2 8 8 8 13 0 10 90 147 112 170 7 8 25
30 40 49 60 80 254 250 285 250 7 0 13 5 13 12 0 6 3 8 6 5 4 -4 19 2 33 12
14 10 63 31 109 46 67 23 82 32 83 49 0 12 1 44 1 71 0 118 -2 136 -14 129 -6
-4 -34 -8 -62 -10 -28 -2 -94 -6 -146 -10 -122 -9 -1216 -10 -1465 -1 -185 7
-344 15 -361 18 -40 7 -42 2 -43 -111 -1 -83 1 -110 11 -110 62 -1 210 -11
238 -15 19 -4 46 -8 60 -9 39 -5 143 -26 160 -33 8 -4 18 -7 23 -8 4 -2 10 -4
15 -5 4 -1 12 -3 17 -4 34 -7 155 -66 205 -100 75 -53 170 -163 170 -198 0 -8
4 -18 8 -23 44 -51 61 -292 33 -455 -6 -36 -12 -74 -14 -85 -1 -11 -6 -25 -10
-32 -4 -6 -4 -18 -1 -27 3 -9 1 -16 -5 -16 -7 0 -11 -6 -10 -12 1 -7 -1 -26
-5 -43 -18 -70 -77 -272 -85 -290 -5 -11 -22 -58 -37 -105 -15 -47 -31 -89
-35 -95 -3 -5 -14 -35 -24 -65 -10 -30 -26 -73 -35 -95 -10 -22 -39 -96 -64
-165 -26 -69 -53 -138 -60 -155 -8 -16 -19 -46 -26 -65 -7 -19 -16 -44 -21
-55 -5 -11 -34 -85 -64 -165 -30 -80 -60 -154 -65 -165 -10 -22 -22 -62 -26
-84 -2 -8 -8 -17 -14 -21 -7 -4 -11 -11 -10 -16 1 -11 -35 -116 -60 -170 -11
-23 -22 -54 -26 -68 -3 -14 -10 -29 -15 -32 -5 -3 -7 -10 -4 -15 4 -5 1 -9 -5
-9 -6 0 -9 -4 -6 -8 3 -5 -1 -20 -9 -35 -8 -15 -12 -27 -9 -27 3 0 -1 -10 -7
-23 -11 -18 -94 -231 -103 -262 -2 -5 -11 -28 -21 -50 -9 -22 -18 -44 -20 -50
-1 -5 -6 -19 -10 -30 -14 -34 -75 -193 -136 -355 -33 -85 -62 -162 -66 -170
-3 -8 -7 -17 -8 -20 -1 -3 -5 -14 -10 -25 -26 -65 -75 -193 -75 -197 0 -3 -8
-23 -17 -44 -9 -22 -17 -41 -18 -44 0 -3 -6 -18 -12 -35 -26 -63 -36 -90 -38
-100 -2 -6 -16 -44 -33 -85 -50 -125 -57 -145 -54 -152 1 -5 -2 -8 -8 -8 -5 0
-10 -6 -10 -13 0 -11 -51 -149 -85 -232 -5 -11 -9 -22 -10 -25 -1 -3 -5 -14
-10 -25 -4 -11 -18 -47 -30 -80 -13 -33 -29 -73 -36 -90 -7 -16 -13 -32 -14
-35 -15 -43 -90 -239 -103 -270 -9 -19 -17 -39 -18 -45 -1 -5 -22 -62 -47
-125 -25 -63 -59 -153 -77 -200 -17 -47 -38 -98 -45 -115 -23 -55 -86 -224
-86 -230 1 -3 -8 -21 -19 -42 -10 -20 -17 -40 -14 -44 2 -4 0 -10 -5 -13 -8
-5 -26 30 -36 69 -2 6 -40 107 -85 225 -45 118 -85 227 -90 241 -4 15 -15 42
-23 60 -15 35 -29 69 -32 82 -2 4 -3 8 -5 10 -1 1 -3 9 -5 17 -1 8 -22 62 -45
120 -23 58 -43 112 -45 121 -2 9 -12 38 -23 65 -33 79 -69 174 -97 254 -14 41
-31 86 -37 100 -18 42 -106 273 -112 295 -4 15 -17 48 -27 70 -5 11 -18 47
-29 80 -12 33 -25 69 -30 80 -13 33 -35 90 -35 95 -1 3 -8 21 -17 40 -12 29
-39 101 -43 120 -1 3 -6 16 -12 30 -6 14 -47 124 -92 245 -46 121 -93 247
-106 280 -58 148 -105 277 -105 290 0 8 -4 15 -8 15 -5 0 -9 6 -9 13 -1 6 -22
66 -48 132 -26 66 -48 125 -49 130 -1 6 -19 55 -40 110 -21 55 -55 145 -76
200 -20 55 -41 109 -45 120 -5 11 -9 22 -10 25 -1 3 -5 14 -9 25 -5 11 -21 56
-38 100 -16 44 -36 96 -44 115 -26 67 -25 69 51 96 76 26 125 47 167 70 14 7
33 14 41 14 9 0 17 3 19 8 2 4 30 20 63 36 33 17 79 42 102 58 23 15 46 28 52
28 6 0 11 5 11 11 0 5 4 8 9 5 5 -4 11 -3 13 1 1 5 23 22 48 38 25 17 50 33
55 38 6 4 28 21 50 38 122 93 257 226 349 344 22 27 42 52 45 55 33 28 175
280 215 380 10 25 23 56 29 70 5 14 11 30 13 35 39 124 63 208 68 231 2 16 7
40 10 54 3 14 7 37 8 53 1 15 5 27 8 27 3 0 6 17 7 38 1 20 4 64 7 97 9 94 12
274 5 293 -3 9 -3 31 1 48 4 17 4 38 0 45 -4 8 -10 41 -13 74 -4 33 -8 69 -10
80 -3 11 -8 38 -12 60 -5 22 -9 42 -10 45 -1 3 -7 31 -15 63 -7 32 -17 60 -22
63 -4 3 -8 18 -8 35 0 16 -3 29 -8 29 -6 0 -26 49 -35 85 -8 35 -118 237 -147
272 -5 7 -10 15 -10 18 0 6 -47 72 -60 85 -3 3 -23 28 -44 55 -79 101 -317
325 -344 325 -6 0 -12 4 -14 8 -5 13 -111 82 -125 82 -6 0 -13 4 -15 8 -5 12
-118 73 -118 65 0 -5 -4 -3 -8 3 -4 5 -23 17 -42 26 -84 38 -147 65 -180 77
-19 7 -44 17 -55 22 -47 21 -240 80 -267 82 -10 1 -18 5 -18 9 0 4 -3 7 -7 7
-5 -1 -10 0 -13 1 -3 1 -14 3 -25 5 -11 2 -38 8 -60 14 -96 24 -175 42 -216
47 -24 4 -55 11 -68 15 -13 5 -26 8 -28 5 -3 -2 -18 0 -35 5 -17 4 -54 11 -82
14 -89 11 -121 20 -121 35 0 8 5 15 10 15 6 1 43 11 82 23 40 12 74 22 75 21
2 -2 14 4 28 11 14 8 31 15 39 16 8 2 42 15 75 30 34 15 67 27 73 27 7 0 13 5
13 10 0 6 3 7 7 4 3 -4 15 0 25 10 10 9 18 13 18 10 0 -9 218 104 310 160 41
26 101 66 133 90 31 23 59 43 61 43 8 0 89 74 172 155 65 64 155 170 222 260
50 67 210 365 196 365 -2 0 2 10 10 23 8 12 15 24 15 27 -1 3 7 32 17 65 10
33 19 63 20 68 1 4 2 8 4 10 1 1 3 9 5 17 2 8 8 35 13 59 6 25 9 49 6 53 -3 4
-1 8 3 8 5 0 9 8 9 18 1 9 5 46 10 82 5 36 8 148 8 250 0 167 -5 231 -20 301
-3 13 -7 36 -9 51 -13 86 -65 238 -122 353 -67 133 -67 135 -75 135 -5 0 -8 7
-8 15 0 8 -3 15 -8 15 -4 0 -18 18 -32 40 -14 22 -28 40 -32 40 -4 0 -9 8 -12
18 -8 22 -156 175 -226 231 -30 25 -59 50 -65 56 -5 6 -25 20 -42 30 -18 11
-33 22 -33 26 0 4 -8 9 -17 13 -10 3 -38 19 -63 35 -58 38 -260 143 -260 136
0 -3 -12 0 -27 8 -56 29 -202 81 -256 91 -12 3 -22 5 -22 6 0 1 -7 3 -15 5
-78 20 -140 34 -165 39 -16 3 -41 7 -55 10 -56 13 -77 16 -129 22 -29 3 -64
10 -77 15 -16 5 -24 5 -24 -2 0 -6 -5 -7 -12 -3 -6 4 -32 8 -57 10 -25 2 -46
4 -46 4 0 13 -518 16 -1185 6 -950 -14 -1742 -7 -2147 18 -49 3 -73 1 -75 -7z
m3007 -221 c17 -2 53 -7 80 -10 62 -7 239 -45 275 -59 8 -3 40 -13 70 -22 131
-41 301 -141 408 -240 60 -56 190 -215 175 -215 -4 0 -3 -4 3 -8 44 -28 186
-398 199 -517 1 -16 4 -30 5 -30 3 0 9 -37 16 -95 3 -30 8 -68 10 -85 10 -74
16 -203 16 -355 0 -155 -3 -218 -18 -350 -3 -30 -6 -70 -7 -87 -1 -18 -4 -33
-8 -33 -4 0 -6 -8 -5 -17 2 -10 -1 -31 -5 -48 -5 -16 -10 -41 -13 -55 -7 -43
-25 -113 -40 -160 -7 -25 -14 -48 -15 -53 0 -4 -7 -20 -15 -36 -9 -16 -13 -31
-10 -33 9 -10 -130 -300 -147 -306 -5 -2 -9 -8 -9 -13 0 -13 -69 -115 -111
-163 -58 -66 -143 -146 -157 -146 -7 0 -15 -7 -18 -15 -3 -8 -14 -17 -25 -20
-10 -4 -25 -12 -32 -20 -22 -21 -196 -102 -282 -131 -88 -29 -137 -41 -235
-58 -14 -3 -25 -5 -25 -6 0 -1 -18 -3 -40 -6 -22 -2 -51 -7 -64 -10 -48 -11
-283 -17 -671 -18 l-395 -1 -2 160 c-1 88 -3 162 -4 165 -1 3 0 9 1 15 2 11 2
286 -1 300 -1 6 0 14 1 20 2 11 2 286 -1 300 -1 6 0 15 1 20 5 25 1 285 -4
294 -4 5 -2 12 3 15 6 4 6 18 1 36 -5 17 -6 30 -2 30 6 0 7 75 1 90 -1 3 0 10
1 15 5 25 1 285 -4 294 -4 5 -2 12 3 15 6 4 6 18 1 36 -5 17 -6 30 -2 30 6 0
7 85 1 100 -1 3 0 10 1 15 5 25 2 274 -4 283 -3 6 -2 13 3 16 6 4 6 18 1 36
-5 17 -6 30 -2 30 6 0 7 75 1 90 -1 3 -1 8 0 12 0 4 3 90 7 190 7 227 7 228
14 228 3 0 5 17 6 38 1 59 24 172 44 217 4 11 16 39 26 63 10 23 21 42 26 42
4 0 8 4 8 10 0 22 67 91 122 126 66 42 151 67 303 88 85 12 469 14 540 2z
m160 -3619 c17 -3 63 -8 104 -12 41 -4 84 -9 95 -11 22 -4 48 -9 101 -18 39
-7 114 -23 140 -30 98 -25 141 -39 210 -64 112 -41 205 -84 205 -94 0 -5 4 -7
9 -4 9 6 174 -100 179 -115 2 -5 8 -9 13 -9 34 0 299 -292 299 -330 0 -5 3
-10 8 -10 4 0 12 -10 18 -23 30 -60 60 -112 67 -115 4 -2 7 -15 7 -28 0 -13 4
-24 8 -24 4 0 19 -33 32 -72 13 -40 27 -77 31 -83 7 -11 22 -73 18 -77 -1 -2
4 -14 11 -28 7 -14 15 -36 16 -50 2 -14 5 -36 8 -50 6 -24 11 -56 20 -112 4
-25 1 -28 -22 -29 -15 0 -56 -2 -92 -4 -392 -20 -1954 -28 -2310 -11 -91 4
-201 8 -246 10 -45 2 -86 6 -92 10 -6 3 -13 2 -17 -4 -4 -6 -12 -7 -18 -3 -7
4 -21 8 -31 8 -11 0 -21 8 -23 20 -6 28 -4 95 2 105 3 5 1 11 -5 15 -6 4 -8
11 -4 16 8 13 8 285 0 298 -4 5 -2 12 3 15 6 4 6 18 1 36 -5 17 -6 30 -2 30 6
0 7 85 1 100 -1 3 0 10 1 15 5 25 2 274 -4 283 -3 6 -2 13 3 16 6 4 6 18 1 36
-5 17 -6 30 -2 30 6 0 7 75 1 90 -1 3 0 10 1 15 1 6 2 70 2 143 l0 132 611 -4
c337 -2 626 -6 642 -9z m-1185 -1612 c25 -3 70 -14 100 -23 30 -8 60 -17 65
-18 27 -5 165 -79 224 -121 86 -60 254 -232 270 -277 2 -6 7 -13 11 -16 19
-13 105 -192 161 -335 35 -88 64 -164 65 -170 1 -5 11 -30 22 -55 11 -25 33
-81 50 -125 50 -132 142 -372 159 -415 6 -14 17 -43 26 -65 30 -79 69 -180 78
-200 9 -23 40 -102 60 -155 8 -19 14 -40 15 -46 2 -15 -70 -26 -256 -40 -185
-15 -587 -8 -640 10 -8 3 -33 8 -54 11 -55 8 -89 16 -101 26 -5 4 -14 8 -20 9
-26 6 -61 23 -78 38 -56 51 -92 91 -112 122 -26 42 -65 143 -72 185 -2 17 -7
41 -12 55 -4 14 -7 42 -7 62 1 21 -1 38 -4 38 -8 0 -8 9 -15 240 -2 107 -5
197 -6 200 -1 3 0 10 1 15 5 25 1 285 -4 294 -4 5 -2 12 3 15 6 4 6 18 1 36
-5 17 -6 30 -2 30 6 0 7 75 1 90 -1 3 0 10 1 15 5 25 1 285 -4 294 -4 5 -2 12
3 15 6 4 6 18 1 36 -5 17 -6 30 -2 30 4 0 6 42 5 92 -2 96 1 123 15 114 4 -2
28 -7 52 -11z m2813 -135 c-1 -127 -9 -288 -17 -355 -7 -55 -18 -130 -23 -150
-2 -11 -6 -36 -9 -55 -3 -19 -11 -56 -19 -82 -8 -27 -12 -48 -9 -48 3 0 2 -6
-3 -12 -4 -7 -9 -21 -10 -32 -5 -30 -55 -170 -65 -183 -6 -7 -8 -13 -4 -13 8
0 -106 -224 -116 -228 -5 -2 -8 -9 -8 -14 0 -11 -86 -129 -126 -174 -11 -12
-33 -36 -49 -55 -17 -19 -48 -49 -69 -67 l-39 -34 -13 29 c-7 15 -34 84 -59
153 -41 110 -133 355 -185 492 -10 26 -15 49 -12 52 3 3 1 6 -5 6 -6 0 -13 10
-16 23 -3 12 -15 49 -27 82 -72 194 -99 365 -78 497 6 41 53 128 68 128 6 0
10 6 10 13 0 7 8 17 18 22 57 32 118 57 139 59 12 0 23 3 23 6 0 3 8 6 18 7 9
0 28 4 42 7 14 3 45 9 70 12 25 3 52 7 60 9 24 6 158 20 295 31 44 3 81 7 82
8 1 1 32 2 69 1 l67 0 0 -135z"/>
</g>
</svg>
