<svg width="80" height="115" viewBox="0 0 80 115" fill="none" xmlns="http://www.w3.org/2000/svg">
<path d="M79.2458 46.4343V45.8818L78.696 45.9368C76.8444 46.122 74.5198 46.2154 71.7181 46.2154C68.1035 46.2154 64.5204 46.1219 60.9686 45.935L60.4423 45.9073V46.4343V48.3084V48.7971L60.9309 48.8082C63.6466 48.87 65.5619 49.3341 66.7556 50.1299L66.7555 50.13L66.7645 50.1357C67.9656 50.9 68.5944 52.1274 68.5944 53.9305C68.5944 55.5852 67.9977 58.075 66.7527 61.4371C66.7523 61.4382 66.7519 61.4394 66.7515 61.4405L51.9524 99.8454L39.6034 67.0284C40.1573 66.8308 40.697 66.6153 41.2223 66.3818L41.2224 66.3818L41.2293 66.3786C44.6758 64.783 47.3449 62.5705 49.2141 59.7346C51.0839 56.8976 52.014 53.6456 52.014 49.9954C52.014 45.6195 50.4965 41.8708 47.469 38.778C44.6721 35.8633 40.2058 33.9208 34.1513 32.8911C38.3367 31.4014 41.4904 29.3442 43.5662 26.6931C45.9461 23.7331 47.1414 20.3756 47.1414 16.6373C47.1414 12.052 45.3557 8.3453 41.7975 5.56268C38.3022 2.78029 33.302 1.42604 26.8702 1.42604C25.3689 1.42604 24.0204 1.45721 22.8255 1.51986L12.7211 1.61344C12.7203 1.61344 12.7196 1.61344 12.7188 1.61344C7.72581 1.61341 3.9302 1.51969 1.32501 1.33361L0.789383 1.29535V1.83234V3.70639V4.17938L1.26165 4.20562C3.50315 4.33014 5.06253 4.57774 5.98635 4.92417L5.98632 4.92426L5.99551 4.9275C6.91487 5.25198 7.5211 5.85821 7.84558 6.77758C8.19025 7.75413 8.37929 9.39913 8.37929 11.7648V58.2413C8.37929 60.6069 8.19025 62.2519 7.84558 63.2285C7.5211 64.1479 6.91487 64.7541 5.99551 65.0786L5.99547 65.0785L5.98635 65.0819C5.06253 65.4283 3.50315 65.6759 1.26165 65.8005L0.789383 65.8267V66.2997V68.1737V68.7107L1.32501 68.6725C3.93042 68.4864 7.7891 68.3926 12.9085 68.3926C16.7745 68.3926 20.7031 68.455 24.6942 68.5796C25.8916 68.6425 27.3358 68.6737 29.0253 68.6737C29.3511 68.6737 29.6738 68.6701 29.9937 68.6627L47.3578 113.425L47.4816 113.744H47.8239H49.3232H49.6656L49.7894 113.425L71.8095 56.6413L71.8096 56.6408C73.5965 52.0196 75.9735 49.4879 78.8625 48.7946L79.2458 48.7026V48.3084V46.4343ZM18.0936 58.2413V48.8429C20.5289 49.2062 23.1724 51.0712 24.4942 54.4858L24.4944 54.4862L28.6757 65.265C27.4199 65.4336 26.0689 65.5186 24.6213 65.5186C22.6526 65.5186 21.232 65.3334 20.3175 64.995C19.5229 64.6188 18.9594 63.982 18.6273 63.0411C18.2821 62.0628 18.0936 60.4783 18.0936 58.2413ZM28.5212 46.2154C24.6422 46.2154 20.6338 46.0974 18.0936 45.9315V35.0345H25.4646C31.2171 35.0345 35.2768 36.305 37.7652 38.7341L37.7652 38.7341L37.7695 38.7382C39.6377 40.5196 40.8438 42.9197 41.3582 45.9726C38.5836 46.134 33.5251 46.2154 28.5212 46.2154ZM41.6437 49.6206C41.6437 54.9426 40.2389 58.8608 37.5114 61.469L35.4547 56.0033L35.4548 56.0033L35.4509 55.9937C34.7075 54.1352 34.3623 52.7395 34.3623 51.7754C34.3623 51.2161 34.474 50.7868 34.6672 50.4607C34.8577 50.1393 35.1468 49.8851 35.5619 49.7035L35.562 49.7036L35.5744 49.6978C35.7829 49.5997 36.1422 49.4958 36.6352 49.3957C37.1183 49.2977 37.6968 49.2098 38.3229 49.1326C39.3885 49.0012 40.5751 48.903 41.6319 48.8384C41.6398 49.0954 41.6437 49.3562 41.6437 49.6206ZM34.1506 28.523L34.1494 28.5246C32.2851 31.0881 28.9185 32.4416 23.8717 32.4416H18.0936V11.7648C18.0936 9.53054 18.2814 7.90924 18.6302 6.86298C18.9678 5.85027 19.5384 5.18896 20.3296 4.81794C21.2347 4.42356 22.6187 4.20639 24.5276 4.20639C29.0785 4.20639 32.2527 5.34457 34.1806 7.50619C36.1273 9.68883 37.146 13.0447 37.146 17.6681C37.146 22.2188 36.1315 25.8218 34.1506 28.523Z" stroke="#EEEFF1"/>
</svg>
