<svg width="26" height="29" viewBox="0 0 26 29" fill="none" xmlns="http://www.w3.org/2000/svg">
<path d="M1.27533 21.3286L2.33203 21.9387L14.1041 1.54955L13.0474 0.939442L1.27533 21.3286Z" fill="#E535AB"/>
<path d="M24.5778 19.6997H1.03369V20.9199H24.5778V19.6997Z" fill="#E535AB"/>
<path d="M1.49943 20.3851L13.2759 27.1844L13.886 26.1278L2.10953 19.3284L1.49943 20.3851Z" fill="#E535AB"/>
<path d="M11.7294 2.66429L23.5059 9.46362L24.116 8.40693L12.3395 1.60759L11.7294 2.66429Z" fill="#E535AB"/>
<path d="M1.50318 8.40229L2.11328 9.45898L13.8897 2.65965L13.2796 1.60295L1.50318 8.40229Z" fill="#E535AB"/>
<path d="M11.517 1.54991L23.2891 21.9391L24.3458 21.329L12.5737 0.939811L11.517 1.54991Z" fill="#E535AB"/>
<path d="M3.187 7.59314H1.9668V21.1918H3.187V7.59314Z" fill="#E535AB"/>
<path d="M23.6514 7.59314H22.4312V21.1918H23.6514V7.59314Z" fill="#E535AB"/>
<path d="M12.5354 25.7451L13.0684 26.6681L23.3107 20.7545L22.7778 19.8315L12.5354 25.7451Z" fill="#E535AB"/>
<path d="M25.2687 21.5889C24.563 22.8165 22.99 23.2355 21.7624 22.5298C20.5349 21.8241 20.1159 20.2511 20.8215 19.0235C21.5272 17.796 23.1002 17.377 24.3278 18.0827C25.5627 18.7957 25.9817 20.3614 25.2687 21.5889Z" fill="#E535AB"/>
<path d="M4.78968 9.76164C4.08402 10.9892 2.51098 11.4082 1.28343 10.7025C0.0558698 9.99686 -0.363117 8.42382 0.342545 7.19627C1.04821 5.96871 2.62124 5.54973 3.8488 6.25539C5.07635 6.9684 5.49534 8.53408 4.78968 9.76164Z" fill="#E535AB"/>
<path d="M0.349869 21.5889C-0.355792 20.3614 0.0631938 18.7957 1.29075 18.0827C2.51831 17.377 4.08399 17.796 4.797 19.0235C5.50266 20.2511 5.08368 21.8168 3.85612 22.5298C2.62122 23.2355 1.05553 22.8165 0.349869 21.5889Z" fill="#E535AB"/>
<path d="M20.8289 9.76164C20.1232 8.53408 20.5422 6.9684 21.7698 6.25539C22.9973 5.54973 24.563 5.96871 25.276 7.19627C25.9817 8.42382 25.5627 9.98951 24.3351 10.7025C23.1076 11.4082 21.5345 10.9892 20.8289 9.76164Z" fill="#E535AB"/>
<path d="M12.809 28.7852C11.3904 28.7852 10.2437 27.6385 10.2437 26.2198C10.2437 24.8011 11.3904 23.6544 12.809 23.6544C14.2277 23.6544 15.3744 24.8011 15.3744 26.2198C15.3744 27.6311 14.2277 28.7852 12.809 28.7852Z" fill="#E535AB"/>
<path d="M12.809 5.13074C11.3904 5.13074 10.2437 3.98404 10.2437 2.56537C10.2437 1.1467 11.3904 0 12.809 0C14.2277 0 15.3744 1.1467 15.3744 2.56537C15.3744 3.98404 14.2277 5.13074 12.809 5.13074Z" fill="#E535AB"/>
</svg>
