<svg width="23" height="23" viewBox="0 0 23 23" fill="none" xmlns="http://www.w3.org/2000/svg">
<path d="M19.7907 1H3.03363C1.91049 1 1 1.91049 1 3.03363V19.7907C1 20.9138 1.91049 21.8243 3.03363 21.8243H19.7907C20.9138 21.8243 21.8243 20.9138 21.8243 19.7907V3.03363C21.8243 1.91049 20.9138 1 19.7907 1Z" fill="#3178C6" fill-opacity="0.27"/>
<path d="M19.7907 0.5H3.03363C1.63434 0.5 0.5 1.63434 0.5 3.03363V19.7907C0.5 21.19 1.63434 22.3243 3.03363 22.3243H19.7907C21.19 22.3243 22.3243 21.19 22.3243 19.7907V3.03363C22.3243 1.63434 21.19 0.5 19.7907 0.5Z" stroke="#3178C6"/>
<path fill-rule="evenodd" clip-rule="evenodd" d="M13.8907 17.571V19.6071C14.2217 19.7767 14.6131 19.904 15.0651 19.9888C15.517 20.0737 15.9934 20.1161 16.4941 20.1161C16.9821 20.1161 17.4457 20.0694 17.8849 19.9761C18.3242 19.8828 18.7093 19.729 19.0403 19.5148C19.3713 19.3006 19.6333 19.0206 19.8264 18.6749C20.0195 18.3292 20.116 17.9018 20.116 17.3928C20.116 17.0237 20.0609 16.7003 19.9505 16.4225C19.8402 16.1446 19.6811 15.8976 19.4731 15.6812C19.2652 15.4649 19.0159 15.2708 18.7252 15.099C18.4345 14.9272 18.1067 14.765 17.7417 14.6123C17.4744 14.502 17.2346 14.3949 17.0224 14.291C16.8103 14.187 16.6299 14.081 16.4814 13.9728C16.3328 13.8646 16.2183 13.7501 16.1377 13.6292C16.057 13.5083 16.0167 13.3715 16.0167 13.2188C16.0167 13.0788 16.0528 12.9526 16.1249 12.8402C16.1971 12.7278 16.2989 12.6313 16.4305 12.5507C16.562 12.4701 16.7233 12.4075 16.9142 12.363C17.1052 12.3185 17.3174 12.2962 17.5508 12.2962C17.7205 12.2962 17.8998 12.3089 18.0886 12.3344C18.2775 12.3598 18.4674 12.3991 18.6584 12.4521C18.8493 12.5051 19.035 12.5719 19.2153 12.6525C19.3957 12.7331 19.5622 12.8264 19.715 12.9325V11.03C19.4052 10.9112 19.0668 10.8232 18.6997 10.766C18.3327 10.7087 17.9115 10.6801 17.4362 10.6801C16.9524 10.6801 16.4941 10.732 16.0613 10.836C15.6284 10.9399 15.2476 11.1021 14.9187 11.3227C14.5898 11.5433 14.3299 11.8243 14.1389 12.1658C13.948 12.5072 13.8525 12.9155 13.8525 13.3906C13.8525 13.9972 14.0275 14.5147 14.3776 14.9431C14.7277 15.3715 15.2592 15.7342 15.9722 16.0312C16.2522 16.1457 16.5132 16.2581 16.7551 16.3684C16.997 16.4787 17.206 16.5932 17.3821 16.712C17.5582 16.8308 17.6972 16.9601 17.799 17.1001C17.9009 17.2401 17.9518 17.3992 17.9518 17.5773C17.9518 17.7088 17.92 17.8308 17.8563 17.9432C17.7927 18.0556 17.6961 18.1531 17.5667 18.2359C17.4373 18.3186 17.276 18.3833 17.0829 18.4299C16.8898 18.4766 16.6639 18.4999 16.405 18.4999C15.9637 18.4999 15.5266 18.4225 15.0937 18.2677C14.6609 18.1129 14.2598 17.8806 13.8907 17.571ZM10.4677 12.5543H13.0797V10.8834H5.79932V12.5543H8.39853V19.9941H10.4677V12.5543Z" fill="white"/>
</svg>
