<svg id="Layer_1" data-name="Layer 1" xmlns="http://www.w3.org/2000/svg" viewBox="0 0 100 100"><defs><style>.cls-1{fill:#fff;}</style></defs><rect x="0.5" y="0.5" width="99" height="99" rx="18.93"/><path d="M80.57,1A18.45,18.45,0,0,1,99,19.43V80.57A18.45,18.45,0,0,1,80.57,99H19.43A18.45,18.45,0,0,1,1,80.57V19.43A18.45,18.45,0,0,1,19.43,1H80.57m0-1H19.43A19.43,19.43,0,0,0,0,19.43V80.57A19.43,19.43,0,0,0,19.43,100H80.57A19.43,19.43,0,0,0,100,80.57V19.43A19.43,19.43,0,0,0,80.57,0Z"/><rect class="cls-1" x="18" y="15" width="10" height="43"/><rect class="cls-1" x="44.79" y="45" width="10" height="10.39"/><rect class="cls-1" x="73" y="36" width="10" height="43"/></svg>