<svg id="Layer_1" data-name="Layer 1" xmlns="http://www.w3.org/2000/svg" viewBox="0 0 9.79 13.1"><defs><style>.cls-1{fill:#5c6bc0;}</style></defs><path class="cls-1" d="M9.57,14.55a6.84,6.84,0,0,1-3.38-.81,5.81,5.81,0,0,1-2.27-2.29A7,7,0,0,1,3.1,8,6.84,6.84,0,0,1,4,4.55,6,6,0,0,1,6.26,2.26a6.92,6.92,0,0,1,3.38-.81,7.54,7.54,0,0,1,1.83.21,6.79,6.79,0,0,1,1.43.53l-.26,2.19a9.79,9.79,0,0,0-1.4-.52,6.3,6.3,0,0,0-1.62-.2,4.1,4.1,0,0,0-2.21.56A3.53,3.53,0,0,0,6.07,5.76,5.3,5.3,0,0,0,5.62,8a5.3,5.3,0,0,0,.45,2.24,3.46,3.46,0,0,0,1.31,1.54,4,4,0,0,0,2.19.56,6.14,6.14,0,0,0,1.62-.2,10.52,10.52,0,0,0,1.45-.52l.26,2.19a8,8,0,0,1-1.57.54A7.78,7.78,0,0,1,9.57,14.55Z" transform="translate(-3.1 -1.45)"/></svg>