<svg id="Layer_1" data-name="Layer 1" xmlns="http://www.w3.org/2000/svg" viewBox="0 0 14.83 13.1"><defs><style>.cls-1{fill:#546e7a;}</style></defs><path class="cls-1" d="M7.05,14.55a6.87,6.87,0,0,1-3.38-.81A5.81,5.81,0,0,1,1.4,11.45,7,7,0,0,1,.59,8a6.84,6.84,0,0,1,.84-3.45A5.94,5.94,0,0,1,3.75,2.26a6.86,6.86,0,0,1,3.37-.81A7.42,7.42,0,0,1,9,1.66a6.58,6.58,0,0,1,1.43.53l-.25,2.19a10.38,10.38,0,0,0-1.41-.52,6.19,6.19,0,0,0-1.62-.2,4.1,4.1,0,0,0-2.21.56A3.5,3.5,0,0,0,3.56,5.76,5.3,5.3,0,0,0,3.11,8a5.3,5.3,0,0,0,.44,2.24,3.42,3.42,0,0,0,1.32,1.54,4,4,0,0,0,2.18.56,6.22,6.22,0,0,0,1.63-.2,11,11,0,0,0,1.45-.52l.25,2.19a7.79,7.79,0,0,1-3.33.74Z" transform="translate(-0.59 -1.45)"/><path class="cls-1" d="M11.39,9.83,11,11.53H9.69l.36-1.7H9.43V8.49h.9l.21-1H9.43V6.11h1.39l.36-1.7h1.34l-.36,1.7h1.29l.36-1.7h1.33l-.35,1.7h.62V7.44h-.9l-.22,1h1.12V9.83H14l-.35,1.7H12.32l.35-1.7Zm.27-1.34H13l.22-1H11.88Z" transform="translate(-0.59 -1.45)"/></svg>