<?xml version="1.0" standalone="no"?>
<!DOCTYPE svg PUBLIC "-//W3C//DTD SVG 20010904//EN"
 "http://www.w3.org/TR/2001/REC-SVG-20010904/DTD/svg10.dtd">
<svg version="1.0" xmlns="http://www.w3.org/2000/svg"
 width="1024.000000pt" height="1024.000000pt" viewBox="0 0 1024.000000 1024.000000"
 preserveAspectRatio="xMidYMid meet">
<metadata>
Created by potrace 1.14, written by Peter Selinger 2001-2017
</metadata>
<g transform="translate(0.000000,1024.000000) scale(0.100000,-0.100000)"
fill="#000000" stroke="none">
<path d="M1306 7921 c-3 -4 -17 -7 -32 -5 -23 2 -25 0 -19 -24 4 -15 13 -43
22 -62 60 -136 84 -200 75 -200 -4 0 -2 -4 3 -8 15 -10 85 -183 71 -176 -6 3
-2 -2 9 -11 17 -14 18 -17 5 -25 -13 -8 -13 -10 2 -10 16 0 42 -53 31 -64 -4
-3 -1 -6 5 -6 7 0 12 -5 12 -11 0 -10 13 -43 105 -261 18 -43 28 -75 21 -71
-6 3 -3 -3 7 -14 9 -11 14 -23 10 -26 -3 -4 -1 -7 5 -7 7 0 12 -9 12 -19 0
-11 5 -23 10 -26 6 -4 8 -11 5 -16 -4 -5 -1 -9 5 -9 7 0 10 -7 6 -15 -3 -8 -2
-15 2 -15 8 0 32 -58 31 -74 0 -5 3 -12 8 -15 13 -8 46 -94 34 -87 -5 4 -13 2
-16 -4 -4 -6 -3 -10 2 -9 22 4 33 -3 33 -19 0 -10 4 -22 9 -27 5 -6 11 -19 13
-30 1 -11 5 -22 8 -25 5 -5 43 -91 60 -135 5 -11 17 -41 29 -67 12 -26 21 -52
21 -58 0 -11 5 -22 35 -79 10 -19 13 -31 7 -27 -6 3 -14 1 -18 -5 -4 -7 -3 -9
2 -6 6 3 14 3 19 -1 13 -9 37 -72 39 -99 0 -11 4 -19 8 -17 7 4 34 -65 30 -78
-1 -5 2 -8 6 -8 6 0 34 -59 37 -80 0 -3 7 -16 15 -30 7 -14 13 -26 12 -27 -1
-2 10 -28 23 -58 14 -31 25 -61 25 -68 0 -7 5 -18 11 -24 6 -6 12 -17 13 -24
2 -8 6 -22 11 -32 4 -10 2 -23 -4 -31 -9 -11 -9 -16 0 -22 7 -4 9 -3 5 4 -3 6
-2 13 3 16 8 5 20 -15 26 -44 1 -3 9 -23 19 -45 10 -22 19 -50 19 -62 1 -11 5
-19 8 -17 10 6 20 -26 12 -38 -4 -7 -1 -8 7 -3 10 6 12 4 7 -8 -4 -10 -2 -17
4 -17 6 0 9 -6 6 -14 -3 -8 1 -17 9 -20 8 -3 13 -9 12 -13 0 -4 4 -21 10 -36
7 -16 9 -33 6 -39 -4 -6 -2 -8 3 -5 12 7 35 -47 26 -57 -4 -3 -2 -6 4 -6 6 0
14 -7 17 -16 4 -10 2 -13 -6 -8 -7 4 -2 -6 10 -23 12 -17 22 -36 22 -42 0 -6
4 -19 9 -29 5 -9 17 -35 26 -57 10 -22 20 -44 23 -49 3 -5 0 -6 -7 -1 -9 5 -9
1 1 -14 7 -12 16 -21 19 -21 4 0 10 -12 14 -27 7 -28 29 -83 46 -116 5 -10 7
-22 4 -27 -4 -6 -2 -10 4 -10 5 0 15 -17 21 -37 12 -38 39 -102 66 -157 13
-26 12 -32 -3 -50 -10 -12 -11 -15 -3 -8 19 16 27 15 34 -4 4 -10 2 -13 -6 -8
-7 4 -3 -6 9 -22 21 -30 39 -73 35 -86 -1 -5 2 -8 7 -8 6 0 8 -9 6 -20 -2 -11
0 -18 6 -15 5 4 10 1 10 -4 3 -20 4 -26 12 -38 4 -6 1 -14 -5 -16 -8 -3 -5 -6
6 -6 13 -1 17 -6 13 -21 -3 -11 -1 -18 4 -14 8 4 14 -17 10 -38 0 -5 3 -8 8
-8 5 0 11 -8 15 -17 3 -10 9 -24 12 -32 5 -9 2 -12 -7 -7 -8 4 -6 1 5 -8 11
-9 16 -22 12 -31 -3 -9 -2 -14 2 -11 9 5 37 -57 33 -70 -2 -4 2 -10 7 -13 5
-3 24 -44 42 -89 28 -70 31 -85 19 -94 -11 -8 -10 -9 4 -4 12 4 20 0 23 -12 8
-23 18 -47 44 -107 12 -27 23 -54 25 -60 1 -5 5 -18 9 -27 4 -9 4 -22 0 -29
-4 -7 -3 -9 3 -6 9 6 50 -71 58 -108 1 -5 12 -32 24 -60 13 -27 24 -54 25 -60
1 -5 12 -32 25 -60 12 -27 25 -62 28 -77 3 -16 9 -28 14 -28 5 0 9 -11 9 -24
0 -13 5 -26 10 -28 16 -5 21 -50 7 -67 -11 -14 -10 -14 6 -2 9 7 18 11 18 7 2
-10 6 -25 9 -33 1 -5 2 -11 1 -15 0 -5 4 -8 9 -8 5 0 9 -3 8 -7 -1 -9 15 -52
33 -85 9 -16 8 -19 -2 -12 -8 4 -4 -5 9 -20 12 -16 22 -33 22 -38 0 -6 6 -24
14 -41 34 -74 45 -109 40 -125 -5 -14 -4 -14 4 -3 9 12 12 9 18 -15 4 -16 10
-33 15 -39 4 -5 7 -12 7 -15 0 -5 5 -18 41 -104 12 -26 18 -53 14 -59 -4 -6
-1 -7 7 -2 10 6 12 3 8 -13 -4 -12 -2 -20 2 -17 5 3 14 -11 20 -30 12 -37 30
-47 30 -17 0 10 7 27 15 38 8 12 11 24 8 28 -3 3 2 6 13 7 10 0 13 3 7 6 -10
4 -10 9 -1 26 7 12 13 24 13 27 1 3 7 17 13 33 7 15 17 39 24 55 6 15 10 31 9
36 -1 5 4 6 12 3 7 -3 14 1 14 9 0 7 -4 11 -8 8 -9 -5 11 45 65 168 9 20 16
41 16 47 0 6 5 11 11 11 5 0 8 4 4 10 -3 5 -1 17 5 27 5 10 15 32 22 48 6 17
12 32 14 35 1 3 5 15 9 28 4 12 11 22 16 22 5 0 8 3 7 8 -5 14 37 115 49 119
7 3 11 9 8 13 -7 12 37 123 55 138 13 11 13 12 0 6 -12 -7 -13 -5 -3 8 7 8 9
18 5 23 -4 4 3 5 15 2 13 -3 26 -1 29 4 3 5 2 9 -3 8 -28 -5 -30 4 -10 56 16
40 27 55 42 56 15 1 16 2 4 6 -16 4 -16 7 -2 43 9 22 19 37 23 35 4 -3 8 1 7
8 -1 33 4 48 14 41 8 -4 9 1 4 16 -6 19 -4 22 10 16 14 -5 15 -3 7 6 -7 9 1
38 29 103 21 50 39 96 39 103 0 7 4 10 10 7 6 -3 7 1 4 9 -3 9 -1 17 5 17 26
3 30 4 37 11 3 4 -3 6 -15 3 -20 -4 -20 -3 -5 33 9 20 18 45 21 54 3 10 10 15
16 11 6 -3 7 -1 3 5 -4 7 3 33 15 59 25 54 23 49 33 85 5 16 12 28 18 28 5 0
7 -4 3 -9 -3 -5 -1 -12 4 -15 11 -7 9 13 -2 32 -9 14 0 35 13 27 4 -3 6 4 3
15 -3 11 0 20 6 20 6 0 8 7 4 17 -4 10 -2 14 4 10 6 -4 10 -1 9 6 -2 25 36
117 46 111 7 -4 8 -2 4 4 -4 6 -1 22 6 34 7 13 12 27 13 31 0 4 7 12 15 17 10
6 11 10 3 10 -10 0 -10 6 -1 25 6 13 14 22 19 20 4 -3 5 5 1 17 -4 16 -2 19 8
13 8 -5 11 -4 7 2 -7 12 22 94 37 105 6 4 14 4 20 1 5 -3 6 -1 2 6 -4 6 -12 9
-17 5 -7 -4 -7 0 0 12 5 11 17 40 27 66 9 26 20 45 24 43 5 -3 6 4 3 15 -4 16
0 20 18 21 15 1 18 3 8 6 -14 3 -13 12 10 68 18 45 30 63 40 60 10 -4 11 -2 4
7 -7 9 -7 21 0 38 5 14 11 30 13 35 1 6 13 33 25 60 13 28 24 52 24 55 1 3 8
19 15 35 7 17 14 35 15 40 0 6 6 9 13 8 7 -2 12 2 12 7 0 6 -5 10 -10 10 -6 0
-2 17 9 38 10 20 22 48 26 62 4 14 15 31 24 38 9 8 10 11 4 7 -9 -4 -11 -1 -7
9 3 9 11 13 17 9 5 -3 7 -1 3 5 -7 12 30 113 46 123 5 3 9 9 9 13 -3 22 0 36
8 32 5 -3 9 0 8 7 -1 34 4 48 15 41 8 -5 9 -2 5 9 -3 10 -2 17 3 17 5 0 7 6 4
14 -3 8 0 17 5 21 6 3 9 11 6 16 -4 5 -1 9 5 9 6 0 8 5 4 12 -5 8 -1 9 12 4
15 -5 16 -4 7 5 -13 13 -6 42 8 33 5 -3 6 2 3 10 -3 8 0 25 7 38 7 13 14 25
15 28 9 39 71 177 84 190 9 8 10 11 3 6 -8 -5 -13 -4 -13 3 0 6 6 14 14 17 9
3 12 12 9 21 -5 12 -3 14 7 8 9 -5 11 -4 6 3 -4 7 -4 18 1 25 4 6 8 17 9 22 1
6 10 28 19 50 10 22 17 43 17 48 -1 4 3 7 10 7 6 0 9 3 6 6 -7 6 38 122 54
142 6 6 7 12 4 12 -4 0 -1 12 7 28 26 49 43 91 46 113 0 5 6 7 12 3 8 -4 9 0
4 15 -4 12 -2 22 4 22 26 3 30 4 37 11 3 4 -3 6 -15 3 -20 -4 -20 -3 -5 33 8
20 22 47 30 60 8 12 12 27 9 32 -4 6 1 13 9 16 9 3 14 10 11 14 -3 4 5 31 16
59 19 44 24 50 38 39 13 -10 14 -10 4 2 -19 21 -16 43 3 36 13 -5 14 -4 6 7
-8 10 -8 20 2 39 8 15 12 29 8 32 -3 3 0 6 7 6 7 0 9 5 5 12 -5 8 -2 9 9 5 10
-3 17 -2 17 3 0 6 -4 10 -10 10 -5 0 -10 5 -10 11 0 6 6 9 13 6 8 -3 14 1 14
9 0 7 -4 11 -9 8 -4 -3 -5 2 -2 10 6 15 18 20 37 17 5 -1 6 3 2 9 -3 6 -10 8
-14 5 -5 -2 -2 12 6 33 7 20 16 45 20 55 3 9 9 17 14 17 5 0 8 3 8 8 -4 24 2
42 13 36 8 -5 9 -2 5 10 -4 10 -2 27 5 39 7 12 13 28 14 36 2 8 8 17 14 21 7
4 11 10 11 14 -3 23 0 36 9 31 5 -3 7 0 4 8 -3 8 2 22 11 31 9 9 14 20 10 25
-6 10 29 34 37 26 3 -3 5 2 5 10 0 11 -4 12 -11 5 -22 -22 -23 -8 -3 39 11 28
23 48 27 46 3 -2 6 4 7 13 1 16 20 70 53 147 7 17 14 35 15 41 2 6 9 27 18 45
19 46 37 89 37 93 0 1 -27 2 -61 1 -33 -1 -62 2 -65 7 -3 5 -11 5 -17 1 -18
-11 -87 -10 -87 1 0 8 -3 8 -8 1 -9 -13 -62 -13 -81 -1 -9 6 -12 5 -8 -1 4 -6
-9 -10 -33 -9 -22 0 -40 5 -40 11 0 7 -3 7 -8 0 -10 -14 -52 -15 -52 -1 0 7
-3 7 -8 1 -9 -13 -75 -14 -84 0 -5 7 -8 6 -8 -1 0 -12 -107 -13 -127 -1 -5 3
-13 3 -17 0 -12 -12 -406 -10 -406 2 0 6 -3 7 -8 0 -11 -15 -75 -18 -66 -4 5
8 3 9 -6 4 -20 -13 -70 -14 -70 -1 0 7 -3 7 -8 1 -9 -13 -75 -14 -84 0 -5 6
-8 5 -8 -3 0 -11 -35 -12 -60 -2 -3 1 -9 1 -15 0 -38 -8 -45 -8 -50 1 -4 5
-11 6 -17 2 -21 -12 -88 -13 -88 0 0 8 -3 8 -8 2 -10 -14 -464 -15 -474 -1 -5
7 -8 7 -8 1 0 -5 -16 -11 -35 -12 -24 -1 -33 2 -29 9 5 7 2 8 -6 3 -20 -13
-70 -14 -70 -1 0 7 -3 7 -8 1 -9 -13 -75 -14 -84 0 -5 6 -8 5 -8 -3 0 -11 -35
-12 -60 -2 -3 1 -9 1 -15 0 -38 -8 -45 -8 -50 1 -4 5 -11 6 -17 2 -21 -12 -88
-13 -88 0 0 8 -3 8 -8 2 -10 -14 -464 -15 -474 -1 -5 7 -8 7 -8 1 0 -5 -16
-11 -35 -12 -24 -1 -33 2 -29 9 5 7 2 8 -6 3 -20 -13 -70 -14 -70 -1 0 7 -3 7
-8 1 -9 -13 -75 -14 -84 0 -5 6 -8 5 -8 -3 0 -11 -35 -12 -60 -2 -3 1 -9 1
-15 0 -38 -8 -45 -8 -50 1 -4 5 -11 6 -17 2 -21 -12 -88 -13 -88 0 0 8 -3 8
-8 2 -10 -14 -464 -15 -474 -1 -5 7 -8 7 -8 1 0 -5 -16 -11 -35 -12 -24 -1
-33 2 -29 9 5 7 2 8 -6 3 -20 -13 -70 -14 -70 -1 0 7 -3 7 -8 1 -9 -13 -75
-14 -84 0 -5 6 -8 6 -8 0 0 -6 -56 -10 -149 -10 -82 -1 -147 3 -145 7 3 4 3 8
0 8 -3 0 -7 -4 -10 -9z m796 -525 c5 -7 8 -5 8 6 0 11 5 15 15 12 8 -4 12 -11
9 -18 -3 -6 0 -4 8 4 14 17 103 16 93 -1 -4 -5 -1 -9 4 -9 6 0 11 4 11 9 0 5
9 11 21 14 14 4 19 1 16 -7 -3 -7 5 -12 23 -11 19 0 26 4 22 14 -4 11 -1 11
16 2 16 -8 22 -9 22 -1 0 6 5 8 10 5 6 -4 7 -12 3 -18 -4 -7 0 -6 10 2 10 8
34 12 62 9 26 -2 45 1 45 7 0 5 4 4 9 -4 11 -17 39 -23 47 -10 3 5 23 9 45 9
24 0 38 -4 34 -10 -3 -5 -1 -10 4 -10 6 0 11 4 11 9 0 5 9 11 21 14 14 4 19 1
16 -7 -3 -7 5 -12 23 -11 19 0 26 4 22 14 -4 11 -1 11 16 2 16 -8 22 -9 22 -1
0 6 5 8 10 5 6 -4 7 -12 4 -18 -5 -8 -3 -8 7 1 16 14 93 17 84 2 -3 -5 -1 -10
4 -10 6 0 11 4 11 9 0 5 9 11 21 14 14 4 19 1 16 -7 -3 -7 5 -12 23 -11 19 0
26 4 22 14 -4 11 -1 11 16 2 16 -8 22 -9 22 -1 0 6 5 8 10 5 6 -4 7 -12 3 -18
-4 -7 0 -6 10 2 10 8 34 12 62 9 26 -2 45 1 45 7 0 5 4 4 9 -4 11 -17 39 -23
47 -10 9 15 46 10 60 -8 12 -16 12 -15 8 7 l-5 25 14 -24 c14 -23 15 -23 21
-5 5 16 13 18 58 15 34 -2 57 -9 65 -20 10 -14 11 -13 7 9 l-5 25 14 -24 c14
-23 15 -23 21 -5 5 17 14 19 76 16 39 -2 68 -8 64 -13 -3 -5 0 -9 5 -9 6 0 11
4 11 9 0 5 9 11 21 14 14 4 19 1 16 -7 -3 -7 5 -12 23 -11 19 0 26 4 22 14 -4
11 -1 11 16 2 16 -8 22 -9 22 -1 0 6 5 8 10 5 6 -4 7 -12 4 -18 -5 -8 -3 -8 7
1 16 14 93 17 84 2 -3 -5 -1 -10 4 -10 6 0 11 4 11 9 0 5 9 11 21 14 14 4 19
1 16 -7 -3 -7 5 -12 23 -11 19 0 26 4 22 14 -4 11 -1 11 16 2 16 -8 22 -9 22
-1 0 6 5 8 10 5 6 -4 7 -12 4 -18 -5 -8 -3 -8 7 1 16 14 93 17 84 2 -3 -5 -1
-10 4 -10 6 0 11 6 11 13 0 19 111 9 127 -12 10 -14 11 -13 7 9 l-5 25 14 -24
c14 -23 15 -23 21 -5 5 16 13 18 58 15 34 -2 57 -9 65 -20 10 -14 11 -13 7 9
l-5 25 14 -24 c14 -23 15 -23 21 -5 5 17 14 19 76 16 39 -2 68 -8 64 -13 -3
-5 0 -9 5 -9 6 0 11 4 11 9 0 5 9 11 21 14 14 4 19 1 16 -7 -3 -7 5 -12 23
-11 19 0 26 4 22 14 -4 11 -1 11 16 2 16 -8 22 -9 22 -1 0 6 5 8 10 5 6 -4 7
-12 4 -18 -5 -8 -3 -8 7 1 16 14 93 17 84 2 -3 -5 -1 -10 4 -10 6 0 11 6 11
13 0 13 78 15 99 3 6 -4 11 -2 11 5 0 7 9 5 26 -6 15 -9 23 -12 20 -6 -5 8 14
11 63 11 39 0 71 -3 71 -8 0 -4 -7 -17 -15 -28 -8 -12 -11 -25 -7 -29 4 -5 0
-6 -9 -3 -9 4 -22 2 -30 -3 -12 -8 -11 -9 1 -7 30 6 29 4 -67 -230 -41 -101
-79 -197 -85 -213 -5 -16 -14 -26 -19 -23 -5 3 -6 -1 -4 -9 3 -7 -1 -27 -10
-43 -8 -16 -15 -35 -15 -41 0 -7 -5 -13 -10 -13 -6 0 -9 -3 -8 -7 3 -15 -14
-63 -21 -59 -4 3 -8 -7 -9 -21 -1 -13 -5 -30 -9 -36 -4 -7 -8 -14 -9 -17 -1
-7 -14 -38 -35 -85 -10 -23 -21 -53 -24 -68 -4 -15 -10 -27 -14 -27 -4 0 -8
-6 -8 -12 -1 -12 -61 -162 -98 -242 -7 -17 -16 -41 -20 -54 -4 -12 -11 -20
-16 -17 -5 3 -6 0 -4 -8 8 -20 -23 -89 -37 -81 -7 4 -8 3 -4 -5 9 -14 -24
-112 -36 -105 -4 3 -5 -1 -2 -9 3 -8 -2 -21 -10 -30 -8 -8 -13 -17 -10 -20 3
-3 0 -16 -7 -29 -7 -12 -14 -31 -16 -41 -2 -9 -14 -39 -27 -65 -14 -26 -28
-59 -32 -75 -3 -15 -10 -30 -15 -33 -5 -3 -9 -14 -9 -24 0 -10 -7 -26 -16 -34
-8 -9 -13 -16 -10 -16 6 0 -18 -64 -52 -141 -11 -24 -30 -71 -42 -104 -13 -33
-28 -69 -34 -80 -6 -11 -11 -22 -11 -25 -3 -20 -39 -99 -44 -96 -3 2 -7 -6 -7
-18 -1 -12 -12 -44 -25 -71 -12 -28 -24 -55 -25 -60 -1 -6 -11 -32 -23 -57
-11 -26 -21 -52 -21 -58 0 -6 -5 -8 -12 -4 -6 4 -8 3 -5 -3 9 -14 -13 -74 -24
-67 -5 3 -6 -2 -3 -11 4 -8 2 -21 -3 -28 -6 -6 -18 -35 -28 -64 -10 -29 -23
-49 -28 -46 -6 3 -7 1 -3 -5 7 -12 -72 -213 -89 -224 -5 -4 -6 -8 -1 -8 6 0 5
-5 -2 -12 -7 -7 -12 -20 -12 -30 0 -10 -4 -18 -8 -18 -4 0 -8 -8 -9 -18 -1
-10 -13 -43 -26 -73 -14 -29 -28 -64 -32 -77 -3 -13 -11 -19 -17 -16 -8 5 -9
1 -5 -10 4 -9 3 -24 -3 -34 -21 -40 -40 -86 -40 -99 0 -7 -4 -13 -10 -13 -5 0
-10 -9 -10 -20 0 -12 -10 -40 -21 -63 -12 -23 -21 -43 -20 -45 1 -1 -6 -22
-17 -45 -11 -23 -25 -57 -32 -74 -7 -18 -16 -33 -21 -33 -5 0 -6 -6 -3 -14 3
-8 1 -17 -5 -21 -10 -6 -15 10 -14 42 1 7 -3 11 -6 8 -11 -6 -54 103 -45 116
4 8 3 9 -4 5 -11 -6 -14 0 -11 20 0 4 -3 10 -8 13 -8 5 -16 23 -51 110 -4 10
-1 12 9 7 8 -4 4 1 -8 10 -13 9 -23 23 -23 32 0 8 -12 40 -26 69 -14 30 -23
61 -20 69 3 8 2 12 -3 9 -12 -7 -25 31 -16 45 4 6 1 9 -6 8 -7 -2 -13 2 -14 7
0 6 -4 16 -9 23 -4 7 -5 20 -2 28 3 8 2 13 -3 10 -12 -8 -114 250 -105 265 4
7 3 9 -3 6 -6 -4 -20 17 -33 51 -12 31 -28 69 -36 85 -9 15 -12 27 -7 27 4 0
2 4 -4 8 -7 4 -15 19 -17 32 -2 14 -5 26 -5 28 -1 1 -1 5 0 8 0 4 -4 10 -11
14 -6 4 -12 13 -13 21 -2 8 -6 20 -11 27 -4 7 -5 20 -2 28 3 8 2 13 -3 10 -8
-5 -27 31 -33 64 -2 8 -7 18 -11 21 -5 3 -9 12 -11 20 -1 8 -9 30 -18 49 -26
58 -43 105 -40 113 1 4 -2 7 -8 7 -5 0 -10 7 -10 15 0 8 -11 38 -24 67 -55
122 -66 151 -60 159 3 5 2 9 -3 9 -4 0 -13 12 -19 28 -6 15 -23 55 -38 90 -14
35 -23 68 -20 74 4 7 2 8 -4 4 -11 -6 -17 12 -13 37 0 4 -3 7 -7 7 -4 0 -14
17 -21 38 -12 34 -40 101 -94 222 -11 25 -21 50 -22 55 -1 6 -7 21 -12 35 -6
14 -9 28 -6 33 2 4 0 7 -4 7 -5 0 -15 17 -22 38 -8 20 -24 60 -36 87 -12 28
-26 59 -30 70 -5 11 -9 22 -10 25 -8 17 -17 50 -15 56 1 4 -3 10 -10 14 -6 4
-12 13 -14 21 -1 8 -7 23 -13 34 -6 11 -12 23 -12 27 -1 4 -9 25 -18 45 -9 21
-16 44 -16 51 0 6 -4 12 -9 12 -4 0 -8 8 -8 18 0 10 -4 22 -8 27 -19 22 -83
195 -76 206 4 7 3 9 -3 6 -13 -8 -26 20 -16 35 3 7 1 8 -5 4 -8 -5 -12 0 -12
13 0 11 -5 23 -11 27 -6 3 -9 15 -6 25 3 11 1 17 -3 14 -11 -7 -32 54 -23 68
3 6 1 7 -5 3 -11 -7 -16 7 -15 41 1 7 -3 11 -7 8 -8 -5 -36 63 -32 78 1 4 -3
7 -8 7 -5 0 -10 6 -10 14 0 7 -13 43 -30 79 -32 71 -35 81 -22 73 5 -3 9 1 9
8 0 9 -7 12 -15 8 -11 -4 -14 -1 -9 12 4 10 3 15 -3 11 -6 -3 -11 0 -12 7 -3
29 -4 34 -15 53 -5 11 -9 25 -7 30 5 14 87 6 96 -9z"/>
<path d="M2021 7396 c2 -2 15 -9 29 -15 24 -11 24 -11 6 3 -16 13 -49 24 -35
12z"/>
<path d="M2473 7385 c0 -8 4 -15 9 -15 4 0 8 4 8 9 0 6 -4 12 -8 15 -5 3 -9
-1 -9 -9z"/>
<path d="M3113 7385 c0 -8 4 -15 9 -15 4 0 8 4 8 9 0 6 -4 12 -8 15 -5 3 -9
-1 -9 -9z"/>
<path d="M3307 7387 c-3 -7 3 -13 14 -13 13 0 15 3 7 13 -6 7 -12 13 -13 13
-2 0 -5 -6 -8 -13z"/>
<path d="M3467 7387 c-3 -7 3 -13 14 -13 13 0 15 3 7 13 -6 7 -12 13 -13 13
-2 0 -5 -6 -8 -13z"/>
<path d="M4109 7383 c-13 -16 -12 -17 4 -4 9 7 17 15 17 17 0 8 -8 3 -21 -13z"/>
<path d="M4267 7387 c-3 -7 3 -13 14 -13 13 0 15 3 7 13 -6 7 -12 13 -13 13
-2 0 -5 -6 -8 -13z"/>
<path d="M4427 7387 c-3 -7 3 -13 14 -13 13 0 15 3 7 13 -6 7 -12 13 -13 13
-2 0 -5 -6 -8 -13z"/>
<path d="M4829 7383 c-13 -16 -12 -17 4 -4 9 7 17 15 17 17 0 8 -8 3 -21 -13z"/>
<path d="M4880 7396 c0 -2 7 -7 16 -10 8 -3 12 -2 9 4 -6 10 -25 14 -25 6z"/>
<path d="M5036 7387 c3 -10 9 -15 12 -12 3 3 0 11 -7 18 -10 9 -11 8 -5 -6z"/>
<path d="M5068 7393 c7 -3 16 -2 19 1 4 3 -2 6 -13 5 -11 0 -14 -3 -6 -6z"/>
<path d="M2153 7375 c0 -8 4 -12 9 -9 5 3 6 10 3 15 -9 13 -12 11 -12 -6z"/>
<path d="M4860 7386 c0 -2 8 -10 18 -17 15 -13 16 -12 3 4 -13 16 -21 21 -21
13z"/>
<path d="M4995 7381 c-9 -15 15 -25 28 -12 9 9 7 10 -7 5 -13 -5 -17 -4 -12 4
4 7 5 12 2 12 -3 0 -7 -4 -11 -9z"/>
<path d="M2086 7367 c-16 -12 -16 -14 -3 -14 9 0 18 6 21 14 3 7 4 13 3 13 -2
0 -11 -6 -21 -13z"/>
<path d="M2679 7353 c-13 -16 -12 -17 4 -4 9 7 17 15 17 17 0 8 -8 3 -21 -13z"/>
<path d="M2750 7359 c0 -5 5 -7 10 -4 6 3 10 8 10 11 0 2 -4 4 -10 4 -5 0 -10
-5 -10 -11z"/>
<path d="M2985 7360 c-3 -6 1 -7 9 -4 18 7 21 14 7 14 -6 0 -13 -4 -16 -10z"/>
<path d="M3232 7365 c3 -3 16 -8 28 -10 12 -2 20 -1 16 2 -4 4 -16 8 -28 10
-12 2 -19 1 -16 -2z"/>
<path d="M3390 7365 c0 -7 30 -13 34 -7 3 4 -4 9 -15 9 -10 1 -19 0 -19 -2z"/>
<path d="M3946 7362 c-3 -5 1 -9 9 -9 8 0 15 4 15 9 0 4 -4 8 -9 8 -6 0 -12
-4 -15 -8z"/>
<path d="M4192 7365 c3 -3 16 -8 28 -10 12 -2 20 -1 16 2 -4 4 -16 8 -28 10
-12 2 -19 1 -16 -2z"/>
<path d="M4350 7365 c0 -7 30 -13 34 -7 3 4 -4 9 -15 9 -10 1 -19 0 -19 -2z"/>
<path d="M4599 7353 c-13 -16 -12 -17 4 -4 9 7 17 15 17 17 0 8 -8 3 -21 -13z"/>
<path d="M4670 7359 c0 -5 5 -7 10 -4 6 3 10 8 10 11 0 2 -4 4 -10 4 -5 0 -10
-5 -10 -11z"/>
<path d="M2253 7345 c0 -8 4 -12 9 -9 5 3 6 10 3 15 -9 13 -12 11 -12 -6z"/>
<path d="M3735 7351 c-3 -5 -2 -12 3 -15 5 -3 9 1 9 9 0 17 -3 19 -12 6z"/>
<path d="M3835 7351 c-3 -5 -2 -12 3 -15 5 -3 9 1 9 9 0 17 -3 19 -12 6z"/>
<path d="M2335 7340 c3 -5 8 -10 11 -10 2 0 4 5 4 10 0 6 -5 10 -11 10 -5 0
-7 -4 -4 -10z"/>
<path d="M3010 7339 c0 -5 5 -7 10 -4 6 3 10 8 10 11 0 2 -4 4 -10 4 -5 0 -10
-5 -10 -11z"/>
<path d="M3650 7339 c0 -5 5 -7 10 -4 6 3 10 8 10 11 0 2 -4 4 -10 4 -5 0 -10
-5 -10 -11z"/>
<path d="M2103 7322 c10 -10 14 -22 10 -27 -5 -4 -2 -5 5 -1 11 6 10 12 -4 27
-9 10 -19 19 -22 19 -3 0 2 -8 11 -18z"/>
<path d="M3953 7325 c0 -8 4 -12 9 -9 5 3 6 10 3 15 -9 13 -12 11 -12 -6z"/>
<path d="M4870 7046 c0 -2 7 -7 16 -10 8 -3 12 -2 9 4 -6 10 -25 14 -25 6z"/>
<path d="M2830 5476 c0 -2 8 -10 18 -17 15 -13 16 -12 3 4 -13 16 -21 21 -21
13z"/>
<path d="M3079 4833 c-13 -16 -12 -17 4 -4 16 13 21 21 13 21 -2 0 -10 -8 -17
-17z"/>
<path d="M6224 7833 c2 -35 -1 -63 -6 -63 -5 0 -6 -6 -1 -12 12 -20 14 -48 3
-48 -6 0 -6 -9 0 -25 7 -18 6 -25 -3 -25 -8 0 -8 -3 2 -9 9 -6 10 -10 2 -16
-7 -4 -8 -12 -4 -18 11 -14 9 -198 -1 -215 -4 -7 -3 -12 3 -12 10 0 8 -31 -3
-49 -4 -5 0 -11 6 -14 10 -3 10 -7 -1 -20 -7 -10 -9 -17 -4 -17 11 0 10 -91
-1 -109 -4 -6 -3 -11 2 -11 10 0 8 -92 -2 -109 -4 -6 -3 -11 2 -11 10 0 9 -30
-2 -48 -4 -6 -4 -12 1 -12 10 0 9 -192 0 -207 -4 -6 -2 -13 4 -15 9 -3 9 -9 0
-25 -6 -13 -7 -24 -2 -27 10 -7 9 -25 -2 -43 -4 -6 -4 -14 0 -16 10 -6 9 -200
-1 -215 -4 -7 -3 -12 1 -12 10 0 10 -111 0 -127 -4 -6 -1 -14 5 -17 11 -5 11
-7 0 -12 -6 -3 -10 -9 -8 -13 11 -17 14 -61 5 -67 -5 -3 -6 -11 -2 -17 11 -18
9 -157 -2 -157 -5 0 -4 -4 4 -9 9 -6 10 -10 2 -16 -7 -4 -8 -12 -4 -18 10 -15
10 -87 0 -104 -4 -6 -4 -14 0 -16 10 -6 9 -179 0 -194 -4 -6 -1 -14 5 -17 11
-5 11 -7 0 -12 -6 -3 -10 -9 -8 -13 11 -17 14 -61 5 -67 -5 -3 -6 -11 -2 -17
11 -18 9 -157 -2 -157 -5 0 -4 -4 4 -9 9 -6 10 -10 2 -16 -7 -4 -8 -12 -4 -18
10 -15 10 -87 0 -104 -4 -6 -4 -14 0 -16 10 -6 9 -179 0 -194 -4 -6 -1 -14 5
-17 11 -5 11 -7 0 -12 -6 -3 -10 -9 -8 -13 11 -17 14 -61 5 -67 -5 -3 -6 -11
-2 -17 11 -18 9 -157 -2 -157 -5 0 -4 -4 4 -9 9 -6 10 -10 2 -16 -7 -4 -8 -12
-4 -18 10 -15 10 -87 0 -104 -4 -6 -4 -14 0 -16 10 -6 9 -179 0 -194 -4 -6 -1
-14 5 -17 11 -5 11 -7 0 -12 -6 -3 -10 -9 -8 -13 11 -17 14 -61 5 -67 -5 -3
-6 -11 -2 -17 11 -18 9 -157 -2 -157 -5 0 -4 -4 4 -9 9 -6 10 -10 2 -16 -7 -4
-8 -12 -4 -18 10 -15 10 -87 0 -104 -4 -6 -4 -14 1 -16 9 -7 8 -119 -2 -135
-4 -7 -4 -12 1 -12 10 0 9 -192 0 -207 -4 -6 -2 -13 4 -15 9 -3 9 -9 0 -25 -6
-13 -7 -24 -2 -27 10 -7 9 -25 -2 -43 -4 -6 -4 -14 0 -16 10 -6 9 -200 -1
-215 -4 -7 -3 -12 3 -12 10 0 8 -31 -3 -49 -4 -5 0 -11 6 -14 10 -3 10 -7 -1
-20 -7 -10 -9 -17 -4 -17 11 0 10 -91 -1 -109 -4 -6 -3 -11 2 -11 10 0 8 -92
-2 -109 -4 -6 -4 -11 1 -11 4 0 8 -31 7 -69 0 -50 3 -68 11 -64 7 2 20 -3 29
-12 9 -9 16 -14 16 -10 0 3 17 -5 37 -19 20 -14 40 -23 45 -20 4 3 8 -2 8 -10
0 -9 3 -15 8 -15 29 5 43 -2 37 -20 -3 -11 -2 -22 3 -25 6 -3 9 2 8 12 -1 12
5 16 19 14 11 -2 22 -8 23 -13 2 -5 8 -7 13 -3 5 3 9 -3 9 -13 0 -14 2 -15 9
-4 7 11 13 10 35 -4 14 -10 26 -14 26 -9 0 4 7 -1 16 -12 8 -10 13 -14 9 -7
-4 9 9 8 47 -4 29 -8 55 -18 58 -22 3 -4 12 -6 20 -6 8 1 23 -3 33 -8 16 -7
16 -11 5 -25 -12 -15 -11 -16 4 -3 10 7 15 17 12 22 -3 5 -1 9 5 9 15 0 24
-19 14 -33 -4 -7 0 -5 9 6 10 10 23 15 29 11 11 -7 28 -9 107 -17 12 -1 22 -5
22 -8 0 -3 11 -4 25 -1 14 2 32 -1 40 -8 9 -8 15 -8 15 -2 0 6 11 8 28 5 42
-8 235 -6 256 3 15 6 17 4 11 -7 -7 -11 -6 -12 6 -3 8 6 31 11 52 10 20 0 37
2 37 5 0 3 6 6 13 7 6 0 28 3 47 5 19 2 41 0 48 -6 9 -7 11 -5 5 9 -6 17 -5
18 12 4 15 -12 17 -12 10 -1 -6 11 -3 13 13 9 12 -4 22 -2 22 3 0 5 13 9 28 9
15 0 32 4 38 9 5 4 21 11 36 15 22 5 26 3 22 -9 -4 -8 -1 -15 5 -15 6 0 10 6
8 12 -2 14 56 46 93 50 14 2 30 9 35 15 6 7 21 14 35 15 14 2 27 6 30 9 7 9
163 88 175 90 6 0 14 7 18 15 5 8 13 12 18 9 5 -4 6 -12 3 -18 -4 -7 -3 -8 2
-4 5 5 9 16 9 25 0 9 8 18 17 20 10 2 32 17 49 33 17 16 34 28 36 25 3 -2 18
9 35 25 17 16 34 26 39 23 5 -3 9 2 9 10 0 8 5 18 12 22 6 4 8 3 5 -3 -7 -11
38 -11 49 0 4 3 -3 5 -15 2 -11 -2 -21 0 -21 4 0 15 29 33 41 25 9 -5 10 -2 6
9 -8 22 8 30 35 17 20 -10 21 -9 7 2 -15 12 -14 16 11 45 16 17 31 29 34 26 3
-4 6 -1 6 5 0 18 81 97 96 94 7 -1 15 2 19 8 4 6 -1 7 -11 3 -14 -5 -16 -3
-11 11 4 10 7 20 7 22 0 2 5 4 11 4 5 0 7 -5 3 -12 -4 -7 -3 -8 5 -4 6 4 9 11
6 16 -7 11 63 110 78 110 6 0 7 3 4 6 -4 4 2 19 13 34 11 16 20 33 20 39 0 6
4 11 9 11 6 0 8 -9 6 -20 -2 -11 0 -18 5 -15 9 6 8 31 -3 41 -3 4 8 27 26 53
17 25 31 46 29 46 -1 0 1 10 4 23 4 12 11 22 16 22 5 0 6 5 3 10 -3 6 -1 10 4
10 6 0 10 3 10 8 -3 19 2 33 10 28 5 -4 7 4 3 16 -3 12 -1 19 4 15 5 -3 11 3
12 14 4 45 6 50 19 45 7 -3 13 -1 13 4 0 6 -5 10 -11 10 -8 0 -8 5 1 15 7 8
10 15 6 15 -3 0 0 16 8 35 8 19 12 35 8 35 -4 0 4 9 18 20 14 11 17 18 8 14
-15 -5 -16 -2 -6 28 6 18 15 41 20 52 7 13 6 16 -2 11 -9 -6 -9 -2 -1 12 6 11
7 23 4 27 -3 3 -2 6 4 6 6 0 8 11 5 25 -2 14 0 25 4 25 8 0 12 56 18 215 0 22
6 43 11 47 6 5 5 8 -3 8 -10 0 -10 5 -2 20 6 11 7 20 2 20 -11 0 -9 53 3 62 6
5 5 8 -3 8 -8 0 -10 5 -5 13 11 18 13 38 2 31 -8 -5 -11 22 -12 109 0 15 -3
27 -7 27 -3 0 -7 15 -8 33 -1 17 -7 47 -13 65 -6 18 -8 36 -5 39 3 4 1 12 -6
20 -6 7 -8 16 -6 19 3 3 -3 28 -13 55 -11 28 -17 54 -14 60 4 5 1 9 -6 9 -6 0
-9 8 -6 20 3 11 1 18 -4 14 -8 -4 -11 9 -8 32 0 4 -5 10 -12 14 -6 4 -12 21
-13 38 0 17 -3 28 -5 26 -6 -5 -93 167 -94 184 0 6 -4 12 -8 12 -11 0 -40 55
-34 64 3 3 2 4 -2 1 -3 -3 -17 11 -30 30 -25 37 -29 50 -11 39 7 -4 8 -3 4 5
-4 6 -11 9 -16 6 -12 -7 -32 30 -22 40 4 5 2 5 -4 2 -15 -9 -38 19 -28 34 4 7
3 9 -3 6 -13 -8 -55 41 -47 55 4 6 3 9 -2 5 -12 -7 -135 119 -126 128 4 4 0 5
-8 3 -8 -2 -14 3 -12 10 1 8 -2 11 -6 8 -12 -7 -44 28 -35 39 5 4 3 5 -3 2
-13 -8 -90 50 -86 64 1 5 -1 8 -5 7 -11 -4 -102 55 -98 62 2 4 -1 7 -8 7 -7 0
-41 18 -77 39 -36 22 -77 45 -92 52 -16 6 -28 15 -28 20 0 5 -6 9 -13 9 -12 0
-138 48 -192 73 -55 26 -286 77 -395 88 -147 14 -387 8 -492 -13 -19 -4 -28
-1 -28 7 0 11 -2 11 -8 0 -5 -7 -17 -14 -28 -16 -10 -2 -26 -6 -34 -8 -12 -2
-16 15 -18 100 -3 84 -1 102 10 96 10 -6 11 -5 1 7 -18 22 -18 1123 0 1112 8
-5 8 -2 -1 9 -9 12 -12 64 -12 199 1 101 1 204 1 229 l-1 45 -274 0 -275 0 3
-62z m1089 -2202 c27 -1 36 -5 31 -13 -5 -10 -4 -10 6 -1 15 14 40 6 40 -13 0
-8 4 -14 10 -14 5 0 7 7 4 15 -5 13 -2 14 19 6 14 -5 28 -7 31 -4 3 3 12 0 21
-7 9 -7 18 -10 22 -7 3 4 15 1 26 -4 11 -6 34 -13 51 -16 17 -3 34 -10 38 -16
4 -7 8 -8 8 -3 0 6 7 1 16 -10 8 -10 13 -13 9 -6 -3 6 -1 12 4 12 6 0 11 -4
11 -9 0 -5 12 -11 28 -13 15 -2 26 -8 25 -14 -1 -7 5 -10 15 -8 22 6 185 -90
231 -136 19 -19 32 -28 27 -20 -4 8 6 0 23 -18 17 -18 31 -29 31 -25 0 4 12
-6 28 -22 15 -16 26 -33 25 -37 -2 -5 3 -7 10 -5 6 1 11 -4 9 -11 -1 -8 2 -11
7 -8 12 8 33 -18 23 -29 -4 -5 -2 -5 5 -1 17 9 28 -14 12 -26 -12 -8 -11 -9 1
-5 18 5 63 -40 54 -54 -3 -5 -2 -9 3 -8 20 3 27 -2 13 -11 -13 -8 -13 -10 2
-10 19 0 51 -53 40 -65 -4 -5 -2 -5 5 -1 15 8 37 -30 27 -46 -4 -6 -3 -8 3 -5
10 6 50 -70 46 -85 -2 -5 1 -8 6 -8 5 0 21 -33 36 -72 15 -40 31 -85 37 -100
6 -16 8 -37 5 -48 -3 -11 -1 -18 4 -14 5 3 10 -7 11 -23 1 -35 3 -44 12 -64 4
-9 6 -20 5 -25 -1 -5 0 -11 1 -14 10 -26 15 -232 7 -310 -3 -25 -5 -58 -6 -73
0 -16 -5 -26 -9 -23 -4 2 -6 -11 -4 -30 3 -21 0 -34 -7 -34 -7 0 -9 -5 -6 -10
4 -6 3 -19 -1 -28 -4 -9 -8 -21 -8 -27 -4 -28 -19 -79 -32 -103 -8 -15 -14
-35 -14 -44 0 -10 -4 -18 -10 -18 -5 0 -10 -9 -10 -21 0 -13 -4 -18 -12 -13
-7 4 -8 3 -4 -5 4 -6 -5 -33 -21 -59 -15 -26 -30 -51 -33 -57 -20 -39 -53 -85
-61 -85 -5 0 -9 -4 -9 -10 0 -16 -28 -48 -134 -153 -54 -54 -101 -96 -104 -93
-3 3 -12 -3 -20 -15 -8 -11 -20 -18 -29 -15 -8 3 -12 2 -9 -3 8 -12 -63 -53
-76 -45 -7 4 -8 2 -4 -4 8 -14 -30 -36 -46 -26 -6 4 -8 3 -5 -3 8 -12 -129
-76 -144 -68 -5 4 -9 2 -9 -3 0 -7 -44 -25 -95 -38 -35 -9 -193 -42 -205 -43
-88 -6 -300 -8 -300 -2 0 3 -18 5 -40 3 -22 -2 -40 0 -40 4 0 5 -15 10 -33 11
-40 2 -103 14 -148 28 -22 7 -26 44 -6 64 9 11 9 12 0 7 -10 -5 -12 75 -12
364 -1 291 2 369 12 364 9 -6 9 -5 0 7 -18 22 -18 483 0 473 9 -5 9 -4 0 7 -8
8 -13 42 -13 87 0 56 3 71 13 66 9 -6 9 -5 0 7 -18 22 -18 483 0 473 9 -5 9
-4 0 7 -8 8 -13 42 -13 87 0 56 3 71 13 66 9 -6 9 -4 -1 8 -19 24 -15 401 4
394 8 -3 16 -1 19 4 9 15 37 12 30 -2 -4 -7 0 -5 9 6 9 11 29 19 51 20 19 0
35 4 35 9 0 16 20 6 21 -10 0 -15 2 -15 9 2 5 11 9 16 9 11 1 -5 8 -2 17 5 15
12 16 11 10 -7 -4 -14 -1 -26 11 -35 16 -13 17 -12 5 2 -7 9 -10 24 -6 32 8
21 61 24 307 18z"/>
<path d="M7130 5626 c0 -2 7 -7 16 -10 8 -3 12 -2 9 4 -6 10 -25 14 -25 6z"/>
<path d="M7179 5628 c-6 -20 -6 -39 0 -42 4 -3 7 6 7 20 0 20 -4 32 -7 22z"/>
<path d="M7214 5605 c0 -13 3 -22 7 -19 8 4 6 30 -2 38 -3 3 -5 -5 -5 -19z"/>
<path d="M7077 5603 c3 -7 6 -13 8 -13 1 0 7 6 13 13 8 10 6 13 -7 13 -11 0
-17 -6 -14 -13z"/>
<path d="M7261 5604 c0 -11 3 -14 6 -6 3 7 2 16 -1 19 -3 4 -6 -2 -5 -13z"/>
<path d="M7300 5606 c7 -7 13 -7 20 0 6 6 3 10 -10 10 -13 0 -16 -4 -10 -10z"/>
<path d="M7026 5596 c3 -8 13 -17 22 -21 13 -5 13 -2 -3 15 -21 24 -26 25 -19
6z"/>
<path d="M6880 5591 c0 -6 4 -13 10 -16 6 -3 7 1 4 9 -7 18 -14 21 -14 7z"/>
<path d="M7356 5587 c3 -10 9 -15 12 -12 3 3 0 11 -7 18 -10 9 -11 8 -5 -6z"/>
<path d="M7420 5580 c-9 -6 -10 -10 -3 -10 6 0 15 5 18 10 8 12 4 12 -15 0z"/>
<path d="M6806 5563 c-6 -14 -5 -15 5 -6 7 7 10 15 7 18 -3 3 -9 -2 -12 -12z"/>
<path d="M6935 5570 c-4 -6 -10 -8 -14 -6 -4 3 -8 -1 -8 -9 0 -13 4 -12 19 2
18 16 22 23 14 23 -3 0 -8 -5 -11 -10z"/>
<path d="M7491 5567 c-8 -10 -7 -14 2 -14 8 0 14 6 14 14 0 7 -1 13 -2 13 -2
0 -8 -6 -14 -13z"/>
<path d="M6850 5566 c0 -2 7 -7 16 -10 8 -3 12 -2 9 4 -6 10 -25 14 -25 6z"/>
<path d="M7235 5561 c-3 -5 -2 -12 3 -15 5 -3 9 1 9 9 0 17 -3 19 -12 6z"/>
<path d="M7266 5558 c3 -5 10 -6 15 -3 13 9 11 12 -6 12 -8 0 -12 -4 -9 -9z"/>
<path d="M6832 5541 c2 -19 -4 -24 -12 -11 -7 11 -10 11 -10 2 0 -7 -4 -11 -9
-7 -5 3 -12 1 -15 -3 -9 -15 43 -7 60 9 13 14 13 16 0 16 -8 0 -15 -3 -14 -6z"/>
<path d="M7516 5541 c-3 -5 2 -15 12 -22 15 -12 16 -12 5 2 -7 9 -10 19 -6 22
3 4 4 7 0 7 -3 0 -8 -4 -11 -9z"/>
<path d="M7559 5533 c-13 -16 -12 -17 4 -4 9 7 17 15 17 17 0 8 -8 3 -21 -13z"/>
<path d="M6857 5515 c-4 -8 -3 -16 1 -19 4 -3 9 4 9 15 2 23 -3 25 -10 4z"/>
<path d="M7590 5525 c0 -7 30 -13 34 -7 3 4 -4 9 -15 9 -10 1 -19 0 -19 -2z"/>
<path d="M6815 5490 c-4 -6 -12 -7 -18 -4 -7 4 -9 4 -5 -1 4 -4 2 -15 -4 -24
-7 -9 0 -5 15 8 15 14 27 26 27 28 0 7 -9 3 -15 -7z"/>
<path d="M7737 5489 c7 -7 15 -10 18 -7 3 3 -2 9 -12 12 -14 6 -15 5 -6 -5z"/>
<path d="M7670 5459 c0 -5 5 -7 10 -4 6 3 10 8 10 11 0 2 -4 4 -10 4 -5 0 -10
-5 -10 -11z"/>
<path d="M7810 5439 c0 -5 5 -7 10 -4 6 3 10 8 10 11 0 2 -4 4 -10 4 -5 0 -10
-5 -10 -11z"/>
<path d="M7870 5416 c0 -2 8 -10 18 -17 15 -13 16 -12 3 4 -13 16 -21 21 -21
13z"/>
<path d="M7850 5379 c0 -5 5 -7 10 -4 6 3 10 8 10 11 0 2 -4 4 -10 4 -5 0 -10
-5 -10 -11z"/>
<path d="M7876 5338 c3 -4 11 -5 19 -1 21 7 19 12 -4 10 -11 0 -18 -5 -15 -9z"/>
<path d="M7950 5299 c0 -5 5 -7 10 -4 6 3 10 8 10 11 0 2 -4 4 -10 4 -5 0 -10
-5 -10 -11z"/>
<path d="M8015 5260 c-3 -5 -1 -10 4 -10 6 0 11 5 11 10 0 6 -2 10 -4 10 -3 0
-8 -4 -11 -10z"/>
<path d="M8115 5200 c3 -5 8 -10 11 -10 2 0 4 5 4 10 0 6 -5 10 -11 10 -5 0
-7 -4 -4 -10z"/>
<path d="M8116 5162 c-3 -5 1 -9 9 -9 8 0 12 4 9 9 -3 4 -7 8 -9 8 -2 0 -6 -4
-9 -8z"/>
<path d="M6786 4918 c3 -5 10 -6 15 -3 13 9 11 12 -6 12 -8 0 -12 -4 -9 -9z"/>
<path d="M8371 4793 c7 -12 15 -20 18 -17 3 2 -3 12 -13 22 -17 16 -18 16 -5
-5z"/>
<path d="M6787 4679 c7 -7 15 -10 18 -7 3 3 -2 9 -12 12 -14 6 -15 5 -6 -5z"/>
<path d="M8413 4665 c0 -8 4 -12 9 -9 5 3 6 10 3 15 -9 13 -12 11 -12 -6z"/>
<path d="M8439 4313 c-13 -16 -12 -17 4 -4 9 7 17 15 17 17 0 8 -8 3 -21 -13z"/>
<path d="M6786 4278 c3 -5 10 -6 15 -3 13 9 11 12 -6 12 -8 0 -12 -4 -9 -9z"/>
<path d="M6787 4039 c7 -7 15 -10 18 -7 3 3 -2 9 -12 12 -14 6 -15 5 -6 -5z"/>
<path d="M6786 3798 c3 -5 10 -6 15 -3 13 9 11 12 -6 12 -8 0 -12 -4 -9 -9z"/>
<path d="M6795 3631 c-3 -5 -2 -12 3 -15 5 -3 9 1 9 9 0 17 -3 19 -12 6z"/>
<path d="M6786 3558 c3 -5 10 -6 15 -3 13 9 11 12 -6 12 -8 0 -12 -4 -9 -9z"/>
<path d="M6786 3478 c3 -5 10 -6 15 -3 13 9 11 12 -6 12 -8 0 -12 -4 -9 -9z"/>
<path d="M6795 3311 c-3 -5 -2 -12 3 -15 5 -3 9 1 9 9 0 17 -3 19 -12 6z"/>
<path d="M6786 3238 c3 -5 10 -6 15 -3 13 9 11 12 -6 12 -8 0 -12 -4 -9 -9z"/>
<path d="M6819 3168 c-5 -18 -6 -38 -1 -34 7 8 12 36 6 36 -2 0 -4 -1 -5 -2z"/>
<path d="M5813 7709 c-2 -23 3 -25 10 -4 4 8 3 16 -1 19 -4 3 -9 -4 -9 -15z"/>
<path d="M5814 7662 c3 -6 -2 -15 -11 -21 -10 -6 -13 -11 -7 -11 20 0 37 27
23 36 -7 4 -9 3 -5 -4z"/>
<path d="M6816 7638 c3 -5 10 -6 15 -3 13 9 11 12 -6 12 -8 0 -12 -4 -9 -9z"/>
<path d="M6787 7559 c7 -7 15 -10 18 -7 3 3 -2 9 -12 12 -14 6 -15 5 -6 -5z"/>
<path d="M5726 7518 c3 -5 10 -6 15 -3 13 9 11 12 -6 12 -8 0 -12 -4 -9 -9z"/>
<path d="M1359 7493 c-12 -16 -12 -17 2 -6 9 7 20 9 24 5 5 -4 5 -1 1 6 -9 16
-11 15 -27 -5z"/>
<path d="M5666 7378 c3 -4 9 -8 15 -8 5 0 9 4 9 8 0 5 -7 9 -15 9 -8 0 -12 -4
-9 -9z"/>
<path d="M5616 7322 c-3 -4 4 -9 15 -9 23 -2 25 3 4 10 -8 4 -16 3 -19 -1z"/>
<path d="M5666 7318 c3 -5 10 -6 15 -3 13 9 11 12 -6 12 -8 0 -12 -4 -9 -9z"/>
<path d="M5595 7271 c-3 -5 -2 -12 3 -15 5 -3 9 1 9 9 0 17 -3 19 -12 6z"/>
<path d="M1496 7227 c3 -10 9 -15 12 -12 3 3 0 11 -7 18 -10 9 -11 8 -5 -6z"/>
<path d="M5610 7219 c0 -5 5 -7 10 -4 6 3 10 8 10 11 0 2 -4 4 -10 4 -5 0 -10
-5 -10 -11z"/>
<path d="M5590 7181 c0 -6 4 -13 10 -16 6 -3 7 1 4 9 -7 18 -14 21 -14 7z"/>
<path d="M6786 6998 c3 -5 10 -6 15 -3 13 9 11 12 -6 12 -8 0 -12 -4 -9 -9z"/>
<path d="M5473 6915 c0 -8 4 -12 9 -9 5 3 6 10 3 15 -9 13 -12 11 -12 -6z"/>
<path d="M6795 6831 c-3 -5 -2 -12 3 -15 5 -3 9 1 9 9 0 17 -3 19 -12 6z"/>
<path d="M5515 6769 c-4 -6 -5 -12 -2 -15 2 -3 7 2 10 11 7 17 1 20 -8 4z"/>
<path d="M6786 6758 c3 -5 10 -6 15 -3 13 9 11 12 -6 12 -8 0 -12 -4 -9 -9z"/>
<path d="M5410 6739 c0 -5 5 -7 10 -4 6 3 10 8 10 11 0 2 -4 4 -10 4 -5 0 -10
-5 -10 -11z"/>
<path d="M5375 6689 c-4 -6 -5 -12 -2 -15 2 -3 7 2 10 11 7 17 1 20 -8 4z"/>
<path d="M6786 6678 c3 -5 10 -6 15 -3 13 9 11 12 -6 12 -8 0 -12 -4 -9 -9z"/>
<path d="M6795 6511 c-3 -5 -2 -12 3 -15 5 -3 9 1 9 9 0 17 -3 19 -12 6z"/>
<path d="M1815 6460 c3 -5 8 -10 11 -10 2 0 4 5 4 10 0 6 -5 10 -11 10 -5 0
-7 -4 -4 -10z"/>
<path d="M5276 6447 c3 -10 9 -15 12 -12 3 3 0 11 -7 18 -10 9 -11 8 -5 -6z"/>
<path d="M6786 6438 c3 -5 10 -6 15 -3 13 9 11 12 -6 12 -8 0 -12 -4 -9 -9z"/>
<path d="M5255 6409 c-4 -6 -5 -12 -2 -15 2 -3 7 2 10 11 7 17 1 20 -8 4z"/>
<path d="M5230 6356 c7 -7 13 -7 20 0 6 6 3 10 -10 10 -13 0 -16 -4 -10 -10z"/>
<path d="M5206 6323 c-6 -14 -5 -15 5 -6 7 7 10 15 7 18 -3 3 -9 -2 -12 -12z"/>
<path d="M5239 6328 c-5 -18 -6 -38 -1 -34 7 8 12 36 6 36 -2 0 -4 -1 -5 -2z"/>
<path d="M5193 6266 c0 -15 22 -15 34 0 4 5 4 6 -1 2 -5 -4 -14 -3 -21 2 -8 7
-12 5 -12 -4z"/>
<path d="M6790 6166 c0 -2 7 -7 16 -10 8 -3 12 -2 9 4 -6 10 -25 14 -25 6z"/>
<path d="M5166 6138 c3 -5 10 -6 15 -3 13 9 11 12 -6 12 -8 0 -12 -4 -9 -9z"/>
<path d="M5130 6059 c0 -5 5 -7 10 -4 6 3 10 8 10 11 0 2 -4 4 -10 4 -5 0 -10
-5 -10 -11z"/>
<path d="M6180 6066 c0 -2 8 -10 18 -17 15 -13 16 -12 3 4 -13 16 -21 21 -21
13z"/>
<path d="M5090 5979 c0 -5 5 -7 10 -4 6 3 10 8 10 11 0 2 -4 4 -10 4 -5 0 -10
-5 -10 -11z"/>
<path d="M5035 5760 c-3 -5 -1 -10 4 -10 6 0 11 5 11 10 0 6 -2 10 -4 10 -3 0
-8 -4 -11 -10z"/>
<path d="M2136 5655 c-9 -26 -7 -32 5 -12 6 10 9 21 6 23 -2 3 -7 -2 -11 -11z"/>
<path d="M4954 5662 c4 -3 14 -7 22 -8 9 -1 13 0 10 4 -4 3 -14 7 -22 8 -9 1
-13 0 -10 -4z"/>
<path d="M4939 5568 c-5 -18 -6 -38 -1 -34 7 8 12 36 6 36 -2 0 -4 -1 -5 -2z"/>
<path d="M4870 5509 c0 -5 5 -7 10 -4 6 3 10 8 10 11 0 2 -4 4 -10 4 -5 0 -10
-5 -10 -11z"/>
<path d="M4854 5458 c-4 -7 -3 -10 1 -5 5 4 17 0 27 -10 10 -9 20 -14 22 -12
2 2 -6 12 -19 22 -18 13 -25 14 -31 5z"/>
<path d="M6180 5426 c0 -2 8 -10 18 -17 15 -13 16 -12 3 4 -13 16 -21 21 -21
13z"/>
<path d="M4856 5407 c3 -10 9 -15 12 -12 3 3 0 11 -7 18 -10 9 -11 8 -5 -6z"/>
<path d="M4789 5303 c-13 -16 -12 -17 4 -4 16 13 21 21 13 21 -2 0 -10 -8 -17
-17z"/>
<path d="M2286 5258 c3 -5 10 -6 15 -3 13 9 11 12 -6 12 -8 0 -12 -4 -9 -9z"/>
<path d="M4789 5243 c-13 -16 -12 -17 4 -4 9 7 17 15 17 17 0 8 -8 3 -21 -13z"/>
<path d="M4770 5199 c0 -5 5 -7 10 -4 6 3 10 8 10 11 0 2 -4 4 -10 4 -5 0 -10
-5 -10 -11z"/>
<path d="M2325 5180 c-3 -6 1 -7 9 -4 18 7 21 14 7 14 -6 0 -13 -4 -16 -10z"/>
<path d="M4746 5165 c-11 -8 -15 -15 -9 -15 6 0 16 7 23 15 16 19 11 19 -14 0z"/>
<path d="M4716 5113 c-6 -14 -5 -15 5 -6 7 7 10 15 7 18 -3 3 -9 -2 -12 -12z"/>
<path d="M4795 5120 c3 -5 8 -10 11 -10 2 0 4 5 4 10 0 6 -5 10 -11 10 -5 0
-7 -4 -4 -10z"/>
<path d="M4715 5040 c-3 -5 -1 -10 4 -10 6 0 11 5 11 10 0 6 -2 10 -4 10 -3 0
-8 -4 -11 -10z"/>
<path d="M4669 4977 c6 -8 7 -18 3 -22 -4 -5 -1 -5 6 -1 10 6 10 11 1 22 -6 8
-14 14 -16 14 -3 0 0 -6 6 -13z"/>
<path d="M2470 4826 c0 -2 7 -7 16 -10 8 -3 12 -2 9 4 -6 10 -25 14 -25 6z"/>
<path d="M6180 4786 c0 -2 8 -10 18 -17 15 -13 16 -12 3 4 -13 16 -21 21 -21
13z"/>
<path d="M4546 4698 c3 -5 10 -6 15 -3 13 9 11 12 -6 12 -8 0 -12 -4 -9 -9z"/>
<path d="M4570 4680 c0 -5 5 -10 11 -10 5 0 7 5 4 10 -3 6 -8 10 -11 10 -2 0
-4 -4 -4 -10z"/>
<path d="M4559 4553 c-13 -16 -12 -17 4 -4 16 13 21 21 13 21 -2 0 -10 -8 -17
-17z"/>
<path d="M9006 4382 c-3 -5 1 -9 9 -9 8 0 12 4 9 9 -3 4 -7 8 -9 8 -2 0 -6 -4
-9 -8z"/>
<path d="M2675 4369 c-4 -6 -5 -12 -2 -15 2 -3 7 2 10 11 7 17 1 20 -8 4z"/>
<path d="M4371 4284 c0 -11 3 -14 6 -6 3 7 2 16 -1 19 -3 4 -6 -2 -5 -13z"/>
<path d="M4399 4288 c-5 -18 -6 -38 -1 -34 7 8 12 36 6 36 -2 0 -4 -1 -5 -2z"/>
<path d="M6180 4146 c0 -2 8 -10 18 -17 15 -13 16 -12 3 4 -13 16 -21 21 -21
13z"/>
<path d="M9029 4083 c-13 -16 -12 -17 4 -4 16 13 21 21 13 21 -2 0 -10 -8 -17
-17z"/>
<path d="M4273 4043 c4 -3 1 -13 -6 -22 -11 -14 -10 -14 6 -2 20 15 22 31 5
31 -6 0 -8 -3 -5 -7z"/>
<path d="M4290 3981 c0 -6 4 -13 10 -16 6 -3 7 1 4 9 -7 18 -14 21 -14 7z"/>
<path d="M2855 3940 c3 -5 8 -10 11 -10 2 0 4 5 4 10 0 6 -5 10 -11 10 -5 0
-7 -4 -4 -10z"/>
<path d="M4226 3942 c-3 -5 1 -9 9 -9 8 0 12 4 9 9 -3 4 -7 8 -9 8 -2 0 -6 -4
-9 -8z"/>
<path d="M8970 3899 c0 -5 5 -7 10 -4 6 3 10 8 10 11 0 2 -4 4 -10 4 -5 0 -10
-5 -10 -11z"/>
<path d="M2846 3878 c3 -5 10 -6 15 -3 13 9 11 12 -6 12 -8 0 -12 -4 -9 -9z"/>
<path d="M8970 3860 c0 -5 5 -10 11 -10 5 0 7 5 4 10 -3 6 -8 10 -11 10 -2 0
-4 -4 -4 -10z"/>
<path d="M8975 3831 c-3 -5 -2 -12 3 -15 5 -3 9 1 9 9 0 17 -3 19 -12 6z"/>
<path d="M8936 3793 c-6 -14 -5 -15 5 -6 7 7 10 15 7 18 -3 3 -9 -2 -12 -12z"/>
<path d="M8996 3787 c3 -10 9 -15 12 -12 3 3 0 11 -7 18 -10 9 -11 8 -5 -6z"/>
<path d="M4196 3767 c3 -10 9 -15 12 -12 3 3 0 11 -7 18 -10 9 -11 8 -5 -6z"/>
<path d="M4160 3760 c-12 -7 -10 -9 7 -7 12 0 19 5 17 9 -6 10 -6 10 -24 -2z"/>
<path d="M4146 3718 c3 -5 10 -6 15 -3 13 9 11 12 -6 12 -8 0 -12 -4 -9 -9z"/>
<path d="M4180 3726 c0 -2 8 -10 18 -17 15 -13 16 -12 3 4 -13 16 -21 21 -21
13z"/>
<path d="M4176 3682 c-3 -5 1 -9 9 -9 8 0 12 4 9 9 -3 4 -7 8 -9 8 -2 0 -6 -4
-9 -8z"/>
<path d="M4115 3661 c-3 -5 -2 -12 3 -15 5 -3 9 1 9 9 0 17 -3 19 -12 6z"/>
<path d="M8935 3659 c-3 -4 2 -6 10 -5 21 3 28 13 10 13 -9 0 -18 -4 -20 -8z"/>
<path d="M8839 3533 c-13 -16 -12 -17 4 -4 16 13 21 21 13 21 -2 0 -10 -8 -17
-17z"/>
<path d="M8846 3498 c3 -5 10 -6 15 -3 13 9 11 12 -6 12 -8 0 -12 -4 -9 -9z"/>
<path d="M3055 3460 c3 -5 8 -10 11 -10 2 0 4 5 4 10 0 6 -5 10 -11 10 -5 0
-7 -4 -4 -10z"/>
<path d="M8836 3433 c-6 -14 -5 -15 5 -6 7 7 10 15 7 18 -3 3 -9 -2 -12 -12z"/>
<path d="M8775 3419 c-3 -4 2 -6 10 -5 21 3 28 13 10 13 -9 0 -18 -4 -20 -8z"/>
<path d="M4011 3407 c-8 -10 -7 -14 2 -14 8 0 14 6 14 14 0 7 -1 13 -2 13 -2
0 -8 -6 -14 -13z"/>
<path d="M3030 3366 c0 -2 7 -7 16 -10 8 -3 12 -2 9 4 -6 10 -25 14 -25 6z"/>
<path d="M3954 3262 c4 -3 14 -7 22 -8 9 -1 13 0 10 4 -4 3 -14 7 -22 8 -9 1
-13 0 -10 -4z"/>
<path d="M8664 3246 c-10 -8 -17 -16 -14 -19 3 -2 14 4 24 14 23 22 18 25 -10
5z"/>
<path d="M3136 3242 c-3 -5 1 -9 9 -9 8 0 12 4 9 9 -3 4 -7 8 -9 8 -2 0 -6 -4
-9 -8z"/>
<path d="M3975 3220 c-3 -5 -1 -10 4 -10 6 0 11 5 11 10 0 6 -2 10 -4 10 -3 0
-8 -4 -11 -10z"/>
<path d="M8653 3151 c0 -11 5 -18 9 -15 4 3 5 11 1 19 -7 21 -12 19 -10 -4z"/>
<path d="M8610 3119 c0 -5 5 -7 10 -4 6 3 10 8 10 11 0 2 -4 4 -10 4 -5 0 -10
-5 -10 -11z"/>
<path d="M3934 3096 c1 -8 5 -18 8 -22 4 -3 5 1 4 10 -1 8 -5 18 -8 22 -4 3
-5 -1 -4 -10z"/>
<path d="M8520 3086 c0 -2 8 -10 18 -17 15 -13 16 -12 3 4 -13 16 -21 21 -21
13z"/>
<path d="M3880 3060 c-9 -6 -10 -10 -3 -10 6 0 15 5 18 10 8 12 4 12 -15 0z"/>
<path d="M8510 3041 c0 -6 4 -12 8 -15 5 -3 9 1 9 9 0 8 -4 15 -9 15 -4 0 -8
-4 -8 -9z"/>
<path d="M3189 3023 c-13 -16 -12 -17 4 -4 16 13 21 21 13 21 -2 0 -10 -8 -17
-17z"/>
<path d="M3895 3029 c-4 -6 -5 -12 -2 -15 2 -3 7 2 10 11 7 17 1 20 -8 4z"/>
<path d="M8467 2999 c7 -7 15 -10 18 -7 3 3 -2 9 -12 12 -14 6 -15 5 -6 -5z"/>
<path d="M8510 3000 c0 -5 5 -10 11 -10 5 0 7 5 4 10 -3 6 -8 10 -11 10 -2 0
-4 -4 -4 -10z"/>
<path d="M3833 2945 c0 -8 4 -12 9 -9 5 3 6 10 3 15 -9 13 -12 11 -12 -6z"/>
<path d="M3856 2898 c3 -5 10 -6 15 -3 13 9 11 12 -6 12 -8 0 -12 -4 -9 -9z"/>
<path d="M8410 2899 c0 -5 5 -7 10 -4 6 3 10 8 10 11 0 2 -4 4 -10 4 -5 0 -10
-5 -10 -11z"/>
<path d="M3269 2883 c-13 -16 -12 -17 4 -4 16 13 21 21 13 21 -2 0 -10 -8 -17
-17z"/>
<path d="M8379 2898 c-5 -9 -5 -48 -1 -43 6 6 11 45 5 45 -2 0 -4 -1 -4 -2z"/>
<path d="M8313 2865 c0 -8 4 -12 9 -9 5 3 6 10 3 15 -9 13 -12 11 -12 -6z"/>
<path d="M3793 2845 c0 -8 4 -12 9 -9 5 3 6 10 3 15 -9 13 -12 11 -12 -6z"/>
<path d="M3825 2840 c-3 -6 1 -7 9 -4 18 7 21 14 7 14 -6 0 -13 -4 -16 -10z"/>
<path d="M8320 2840 c-9 -6 -10 -10 -3 -10 6 0 15 5 18 10 8 12 4 12 -15 0z"/>
<path d="M8229 2823 c-13 -16 -12 -17 4 -4 16 13 21 21 13 21 -2 0 -10 -8 -17
-17z"/>
<path d="M8260 2825 c0 -2 6 -8 13 -14 10 -8 14 -7 14 2 0 8 -6 14 -14 14 -7
0 -13 -1 -13 -2z"/>
<path d="M8315 2800 c3 -5 8 -10 11 -10 2 0 4 5 4 10 0 6 -5 10 -11 10 -5 0
-7 -4 -4 -10z"/>
<path d="M8196 2782 c-2 -4 -1 -14 4 -22 7 -11 9 -9 7 8 -1 24 -3 26 -11 14z"/>
<path d="M8250 2779 c0 -5 5 -7 10 -4 6 3 10 8 10 11 0 2 -4 4 -10 4 -5 0 -10
-5 -10 -11z"/>
<path d="M3753 2745 c0 -8 4 -12 9 -9 5 3 6 10 3 15 -9 13 -12 11 -12 -6z"/>
<path d="M8090 2722 c0 -5 7 -9 15 -9 8 0 12 4 9 9 -3 4 -9 8 -15 8 -5 0 -9
-4 -9 -8z"/>
<path d="M8156 2718 c3 -5 10 -6 15 -3 13 9 11 12 -6 12 -8 0 -12 -4 -9 -9z"/>
<path d="M8053 2673 c0 -9 4 -10 14 -2 7 6 13 12 13 14 0 1 -6 2 -13 2 -8 0
-14 -6 -14 -14z"/>
<path d="M6270 2676 c0 -2 8 -10 18 -17 15 -13 16 -12 3 4 -13 16 -21 21 -21
13z"/>
<path d="M7996 2655 c-3 -9 -11 -13 -17 -9 -8 5 -9 3 -4 -5 6 -10 11 -9 23 3
9 8 13 18 10 21 -3 3 -8 -1 -12 -10z"/>
<path d="M8090 2659 c0 -5 5 -7 10 -4 6 3 10 8 10 11 0 2 -4 4 -10 4 -5 0 -10
-5 -10 -11z"/>
<path d="M8015 2631 c-3 -5 -2 -12 3 -15 5 -3 9 1 9 9 0 17 -3 19 -12 6z"/>
<path d="M3733 2623 c4 -3 1 -13 -6 -22 -11 -14 -10 -14 5 -2 16 12 16 31 1
31 -4 0 -3 -3 0 -7z"/>
<path d="M7918 2623 c7 -3 16 -2 19 1 4 3 -2 6 -13 5 -11 0 -14 -3 -6 -6z"/>
<path d="M7855 2599 c-4 -6 -4 -13 -1 -16 3 -4 6 -1 6 6 0 8 7 11 15 7 8 -3
15 -1 15 4 0 13 -27 13 -35 -1z"/>
<path d="M3716 2558 c3 -5 10 -6 15 -3 13 9 11 12 -6 12 -8 0 -12 -4 -9 -9z"/>
<path d="M7676 2542 c-3 -5 1 -9 9 -9 8 0 12 4 9 9 -3 4 -7 8 -9 8 -2 0 -6 -4
-9 -8z"/>
<path d="M3656 2527 c3 -10 9 -15 12 -12 3 3 0 11 -7 18 -10 9 -11 8 -5 -6z"/>
<path d="M7610 2536 c0 -2 8 -10 18 -17 15 -13 16 -12 3 4 -13 16 -21 21 -21
13z"/>
<path d="M7596 2507 c3 -10 9 -15 12 -12 3 3 0 11 -7 18 -10 9 -11 8 -5 -6z"/>
<path d="M7733 2505 c0 -8 4 -12 9 -9 5 3 6 10 3 15 -9 13 -12 11 -12 -6z"/>
<path d="M6650 2499 c0 -5 5 -7 10 -4 6 3 10 8 10 11 0 2 -4 4 -10 4 -5 0 -10
-5 -10 -11z"/>
<path d="M6833 2495 c0 -8 4 -12 9 -9 4 3 8 9 8 15 0 5 -4 9 -8 9 -5 0 -9 -7
-9 -15z"/>
<path d="M7513 2495 c0 -8 4 -12 9 -9 5 3 6 10 3 15 -9 13 -12 11 -12 -6z"/>
<path d="M3637 2493 c-10 -9 -9 -23 1 -23 5 0 9 7 9 15 0 17 -1 18 -10 8z"/>
<path d="M7371 2491 c-8 -5 -16 -17 -17 -26 -1 -9 1 -14 4 -10 4 4 6 9 4 12
-2 3 5 11 15 19 20 15 16 19 -6 5z"/>
<path d="M7491 2484 c0 -11 3 -14 6 -6 3 7 2 16 -1 19 -3 4 -6 -2 -5 -13z"/>
<path d="M7573 2485 c0 -8 4 -12 9 -9 5 3 6 10 3 15 -9 13 -12 11 -12 -6z"/>
<path d="M7039 2488 c-6 -21 -5 -37 2 -32 5 3 7 9 4 14 -3 4 1 11 7 13 10 4
10 6 1 6 -7 1 -13 0 -14 -1z"/>
<path d="M7071 2467 c-13 -21 -12 -21 5 -5 10 10 16 20 13 22 -3 3 -11 -5 -18
-17z"/>
<path d="M7224 2482 c4 -3 14 -7 22 -8 9 -1 13 0 10 4 -4 3 -14 7 -22 8 -9 1
-13 0 -10 -4z"/>
<path d="M7275 2471 c-3 -5 -2 -12 3 -15 5 -3 9 1 9 9 0 17 -3 19 -12 6z"/>
<path d="M6816 2458 c3 -5 10 -6 15 -3 13 9 11 12 -6 12 -8 0 -12 -4 -9 -9z"/>
<path d="M6855 2460 c3 -5 8 -10 11 -10 2 0 4 5 4 10 0 6 -5 10 -11 10 -5 0
-7 -4 -4 -10z"/>
<path d="M7140 2460 c-9 -6 -10 -10 -3 -10 6 0 15 5 18 10 8 12 4 12 -15 0z"/>
<path d="M7626 2462 c-3 -5 1 -9 9 -9 8 0 12 4 9 9 -3 4 -7 8 -9 8 -2 0 -6 -4
-9 -8z"/>
<path d="M6950 2456 c0 -2 8 -10 18 -17 15 -13 16 -12 3 4 -13 16 -21 21 -21
13z"/>
<path d="M7015 2420 c-3 -5 -1 -10 4 -10 6 0 11 5 11 10 0 6 -2 10 -4 10 -3 0
-8 -4 -11 -10z"/>
<path d="M7076 2422 c-3 -5 1 -9 9 -9 8 0 12 4 9 9 -3 4 -7 8 -9 8 -2 0 -6 -4
-9 -8z"/>
<path d="M7295 2420 c3 -5 8 -10 11 -10 2 0 4 5 4 10 0 6 -5 10 -11 10 -5 0
-7 -4 -4 -10z"/>
<path d="M7373 2415 c0 -8 4 -12 9 -9 5 3 6 10 3 15 -9 13 -12 11 -12 -6z"/>
</g>
</svg>
