<?xml version="1.0" standalone="no"?>
<!DOCTYPE svg PUBLIC "-//W3C//DTD SVG 20010904//EN"
 "http://www.w3.org/TR/2001/REC-SVG-20010904/DTD/svg10.dtd">
<svg version="1.0" xmlns="http://www.w3.org/2000/svg"
 width="868.000000pt" height="868.000000pt" viewBox="0 0 868.000000 868.000000"
 preserveAspectRatio="xMidYMid meet">
<metadata>
Created by potrace 1.11, written by Peter Selinger 2001-2013
</metadata>
<g transform="translate(0.000000,868.000000) scale(0.100000,-0.100000)"
fill="#000000" stroke="none">
<path d="M16 7283 c9 -21 22 -53 28 -70 6 -18 14 -33 18 -33 5 0 8 -6 8 -14 0
-8 18 -53 40 -100 21 -48 39 -87 39 -89 0 -3 28 -70 51 -122 9 -22 30 -69 45
-105 15 -36 35 -83 45 -105 11 -22 46 -105 80 -185 69 -163 77 -181 114 -263
14 -32 26 -60 26 -62 0 -2 11 -28 24 -57 13 -29 43 -98 66 -153 23 -55 45
-104 48 -110 4 -5 7 -12 8 -15 1 -6 0 -4 112 -266 96 -224 114 -265 143 -329
9 -22 38 -89 64 -150 25 -60 57 -134 71 -163 13 -29 24 -59 24 -67 0 -8 5 -15
10 -15 6 0 10 -5 10 -11 0 -9 120 -294 171 -406 10 -24 19 -45 19 -47 0 -3 13
-33 29 -68 16 -35 41 -92 56 -128 15 -36 31 -73 36 -82 5 -10 9 -25 9 -33 0
-8 5 -15 10 -15 6 0 10 -8 10 -18 0 -10 4 -22 8 -27 5 -6 16 -28 24 -50 9 -22
28 -66 42 -97 14 -31 26 -59 26 -62 0 -3 11 -29 24 -58 13 -29 45 -102 71
-163 25 -60 55 -128 65 -150 10 -22 30 -69 45 -105 15 -36 36 -84 46 -107 10
-22 73 -168 139 -323 66 -155 129 -301 139 -323 10 -23 33 -76 50 -117 44
-103 74 -174 106 -245 15 -33 34 -78 43 -100 8 -22 19 -44 24 -50 4 -5 8 -17
8 -27 0 -10 5 -18 10 -18 6 0 10 -7 10 -16 0 -9 13 -45 30 -81 17 -35 30 -66
30 -68 0 -3 11 -28 24 -57 64 -144 136 -315 136 -326 0 -7 5 -12 10 -12 6 0
10 -9 10 -19 0 -36 20 -33 37 6 9 21 17 40 18 43 1 3 11 26 23 52 12 26 22 49
22 52 0 3 11 29 24 58 13 29 43 98 66 153 24 55 56 128 72 163 15 34 28 65 28
68 0 3 11 30 25 60 14 30 37 82 51 117 14 34 31 68 36 75 6 6 7 12 3 12 -4 0
-2 7 5 15 7 8 9 15 4 15 -5 0 -4 4 1 8 6 4 21 34 34 67 13 33 34 83 47 110 30
67 37 89 36 98 -1 4 2 7 6 7 6 0 33 58 37 80 0 3 8 21 17 40 55 122 68 151 68
154 0 2 12 30 27 62 14 33 27 64 29 69 1 6 21 53 44 105 23 52 125 289 227
525 101 237 194 450 205 475 12 25 21 51 21 58 0 6 3 12 7 12 4 0 13 19 20 43
8 23 18 48 24 56 6 7 11 18 12 25 1 7 12 34 24 61 13 28 72 165 133 305 60
140 116 271 125 290 9 19 16 37 17 40 1 3 8 21 17 40 8 19 37 85 62 145 26 61
54 124 61 140 24 53 48 110 50 120 2 6 14 35 28 65 14 30 40 89 57 130 32 75
90 209 115 265 15 33 38 87 40 95 1 3 9 23 19 45 10 22 31 70 46 106 15 36 35
81 43 100 43 92 97 224 97 236 0 7 5 13 10 13 6 0 10 6 10 13 0 10 53 138 100
242 5 11 18 40 28 65 11 25 30 68 42 95 22 50 42 98 62 145 6 14 17 37 25 52
7 15 13 29 13 30 -1 3 20 54 55 135 14 31 24 58 22 60 -2 1 -900 2 -1995 1
l-1991 -3 46 -105 c25 -58 55 -125 66 -150 21 -48 83 -192 97 -226 l8 -21
1485 1 c817 1 1495 -1 1505 -4 18 -5 15 -14 -34 -130 -30 -69 -58 -134 -64
-145 -33 -69 -172 -392 -173 -402 0 -7 -4 -13 -9 -13 -4 0 -8 -7 -8 -15 0 -14
-9 -35 -32 -75 -4 -8 -11 -22 -14 -30 -17 -44 -285 -661 -319 -735 -12 -27
-51 -115 -85 -195 -34 -80 -70 -163 -80 -185 -10 -22 -42 -94 -70 -160 -29
-66 -63 -145 -77 -175 -14 -30 -33 -75 -43 -100 -10 -25 -32 -76 -50 -115 -17
-38 -31 -71 -31 -73 1 -1 -6 -17 -16 -35 -9 -17 -18 -36 -19 -42 -1 -5 -16
-41 -34 -80 -17 -38 -37 -83 -45 -100 -7 -16 -25 -57 -40 -90 -15 -33 -35 -81
-45 -106 -10 -26 -28 -66 -39 -90 -65 -141 -183 -416 -184 -426 0 -7 -4 -13
-9 -13 -4 0 -8 -5 -8 -11 0 -5 -11 -35 -25 -65 -14 -30 -25 -56 -25 -59 0 -2
-13 -32 -29 -67 -16 -35 -43 -97 -61 -138 -18 -41 -41 -95 -53 -120 -11 -25
-29 -65 -40 -90 -19 -45 -19 -45 -30 -20 -6 14 -21 48 -33 75 -65 150 -103
238 -109 255 -1 3 -10 23 -19 45 -10 22 -31 72 -48 110 -17 39 -37 86 -45 105
-9 19 -24 55 -35 80 -11 25 -24 54 -29 65 -51 117 -124 288 -135 318 -8 22
-23 56 -34 78 -11 21 -20 45 -20 53 0 8 -3 16 -7 18 -5 2 -19 30 -32 63 -13
33 -32 78 -42 100 -75 169 -139 321 -139 332 0 7 -4 13 -10 13 -5 0 -10 6 -10
13 0 7 -32 84 -71 172 -39 88 -72 165 -73 170 -4 14 -21 56 -47 113 -12 26
-28 63 -36 82 -8 19 -23 53 -33 75 -42 96 -73 169 -131 305 -34 80 -72 169
-85 198 -13 29 -36 80 -50 115 -29 70 -45 106 -67 157 -8 19 -38 89 -66 155
-29 66 -58 134 -65 150 -8 17 -21 46 -29 65 -54 126 -82 192 -103 238 -13 29
-24 56 -24 60 0 4 -7 21 -16 37 -9 17 -25 52 -35 79 -11 27 -28 68 -38 90 -48
106 -61 136 -86 196 -14 36 -32 79 -40 95 -7 17 -23 53 -34 80 -12 28 -26 59
-31 70 -5 11 -25 56 -43 100 l-34 80 -287 3 -286 2 16 -37z"/>
<path d="M5707 7313 c-3 -5 -4 -1346 -4 -2980 l0 -2973 284 0 283 0 1 38 c1
48 1 5893 0 5910 -1 9 -64 12 -280 12 -154 0 -282 -3 -284 -7z"/>
<path d="M6852 5081 c-5 -3 -9 -126 -8 -286 l1 -280 55 -2 c90 -5 190 -21 285
-48 33 -9 66 -17 73 -17 6 -1 12 -4 12 -8 0 -4 6 -7 13 -7 8 0 36 -10 63 -22
27 -13 60 -28 74 -34 79 -36 234 -150 320 -237 52 -52 102 -104 111 -116 67
-88 140 -213 182 -315 25 -61 67 -212 73 -264 3 -27 8 -63 11 -80 8 -40 7
-195 -1 -275 -5 -54 -27 -166 -39 -205 -2 -5 -9 -30 -16 -55 -21 -74 -96 -224
-157 -316 -64 -97 -211 -251 -294 -311 -75 -54 -179 -117 -197 -119 -7 -1 -21
-8 -29 -15 -13 -11 -121 -53 -159 -63 -5 -1 -30 -8 -55 -15 -25 -7 -54 -15
-65 -17 -83 -14 -158 -23 -206 -25 l-56 -2 0 -286 0 -286 61 1 c68 2 194 16
281 30 37 6 163 40 196 52 13 5 29 10 34 11 60 7 264 102 423 196 102 60 328
259 427 376 109 128 280 419 300 510 4 16 11 31 16 34 5 4 9 12 9 20 0 8 5 26
12 42 6 15 12 33 13 38 2 6 10 37 18 70 9 33 18 74 21 90 3 17 9 41 13 55 4
14 8 156 9 315 2 298 0 324 -45 500 -17 67 -72 219 -84 234 -7 8 -11 17 -10
20 0 3 -5 21 -13 40 -8 18 -14 37 -14 42 0 5 -4 9 -10 9 -5 0 -10 6 -10 13 0
20 -109 193 -180 287 -136 178 -383 396 -535 471 -47 24 -79 43 -86 52 -3 5
-10 9 -15 10 -5 0 -36 13 -69 28 -166 75 -411 140 -586 154 -130 11 -158 12
-167 6z"/>
</g>
</svg>
