<svg id="Layer_1" data-name="Layer 1" xmlns="http://www.w3.org/2000/svg" viewBox="0 0 48.9 37.38"><defs><style>.cls-1{fill:#fff;}</style></defs><path class="cls-1" d="M40.46,23.4a7.33,7.33,0,0,0,1.09-.24,2.79,2.79,0,0,0,.75-.38,3.13,3.13,0,0,0,1-1.24,4,4,0,0,0,.35-1.66A4.75,4.75,0,0,0,43.29,18a3.3,3.3,0,0,0-1-1.35,2.86,2.86,0,0,0-1.19-.57,10,10,0,0,0-2-.15H37.94V23.5h1A11,11,0,0,0,40.46,23.4Z" transform="translate(-0.55 -6.31)"/><path class="cls-1" d="M43.79,24.83a5.64,5.64,0,0,0-3.58-.93H37.94v5.22a7.11,7.11,0,0,0,.13,1.54,2.28,2.28,0,0,0,2.66,1.84A4.5,4.5,0,0,0,44,31.38a4,4,0,0,0,1.18-3,5.7,5.7,0,0,0-.36-2.05A3.56,3.56,0,0,0,43.79,24.83Z" transform="translate(-0.55 -6.31)"/><path class="cls-1" d="M25,6.31C11.5,6.31.55,14.68.55,25S11.5,43.69,25,43.69,49.45,35.32,49.45,25,38.5,6.31,25,6.31ZM12.51,15.87a3.93,3.93,0,0,0-1.17.2,2.23,2.23,0,0,0-.81.53A2.42,2.42,0,0,0,9.92,18a14.21,14.21,0,0,0-.07,1.55v9.35a10.4,10.4,0,0,0,.1,1.66,2.81,2.81,0,0,0,.33,1,2,2,0,0,0,.85.75,3.58,3.58,0,0,0,1.38.3v.29H4.4V32.6a4.32,4.32,0,0,0,1.19-.21,2.08,2.08,0,0,0,.79-.53,2,2,0,0,0,.55-1,9.93,9.93,0,0,0,.14-1.93V19.56a9.86,9.86,0,0,0-.14-1.93,2.06,2.06,0,0,0-.55-1,2,2,0,0,0-.8-.53,3.94,3.94,0,0,0-1.18-.2v-.29h8.11Zm3.13,16.8-.94-.39a1.16,1.16,0,0,0-.34-.05.85.85,0,0,0-.84.61h-.29l0-5.24h.29a11.33,11.33,0,0,0,1.27,3.15,4.06,4.06,0,0,0,3.48,2.13,3.2,3.2,0,0,0,2.41-1,3.4,3.4,0,0,0,1-2.47,4.43,4.43,0,0,0-.21-1.32A3.75,3.75,0,0,0,20.89,27a4.38,4.38,0,0,0-1-1,20.34,20.34,0,0,0-2-1.15,19.15,19.15,0,0,1-1.84-1,5.51,5.51,0,0,1-1-.85,4.16,4.16,0,0,1-1.09-2.9,5.1,5.1,0,0,1,.43-2,5,5,0,0,1,1.18-1.68,4.58,4.58,0,0,1,3.19-1.24,4.75,4.75,0,0,1,1.1.12,9.16,9.16,0,0,1,1.36.48c.42.17.71.27.86.32a1.31,1.31,0,0,0,.41.07c.29,0,.49-.22.59-.65h.3l.08,5h-.29a19,19,0,0,0-.59-1.85,7.19,7.19,0,0,0-.58-1.18A4.67,4.67,0,0,0,20.52,16a3.19,3.19,0,0,0-1.72-.47,2.81,2.81,0,0,0-2.25,1,3,3,0,0,0-.53.93,3.07,3.07,0,0,0-.2,1.07q0,2.12,2.72,3.41l1.79.87a8.1,8.1,0,0,1,3,2.15,4.85,4.85,0,0,1,1,3.08,5.45,5.45,0,0,1-.46,2.22,5,5,0,0,1-2,2.29,5.92,5.92,0,0,1-3.11.8A7.8,7.8,0,0,1,15.64,32.67ZM46.46,32a4.68,4.68,0,0,1-1.78.73,16.57,16.57,0,0,1-2.91.2H32.5V32.6a4.24,4.24,0,0,0,1.18-.21,2.12,2.12,0,0,0,.8-.53,2,2,0,0,0,.54-1,9.18,9.18,0,0,0,.14-1.93V19.56A9.12,9.12,0,0,0,35,17.63a2,2,0,0,0-.54-1,2.12,2.12,0,0,0-.8-.53,4.18,4.18,0,0,0-1.14-.2,4.85,4.85,0,0,0-1,.16,2.33,2.33,0,0,0-.75.42,2.08,2.08,0,0,0-.67,1.05,8.07,8.07,0,0,0-.18,2V30.82a11.1,11.1,0,0,1-.25,2.65,3.48,3.48,0,0,1-.93,1.58,4.85,4.85,0,0,1-1.81,1,7,7,0,0,1-2.34.4,6.34,6.34,0,0,1-1.38-.15,3.71,3.71,0,0,1-1.08-.4,1.4,1.4,0,0,1-.75-1.22,1,1,0,0,1,1.05-1,1.09,1.09,0,0,1,.78.3,1.34,1.34,0,0,1,.26.38,7.09,7.09,0,0,1,.35.81,1.78,1.78,0,0,0,.5.78,1.18,1.18,0,0,0,.77.24,1.54,1.54,0,0,0,1.05-.39,2.56,2.56,0,0,0,.7-1.15,16,16,0,0,0,.31-3.94V19.48A9,9,0,0,0,27,18a2.43,2.43,0,0,0-.61-1.3,3,3,0,0,0-2-.87v-.29H40.83c.85,0,1.4,0,1.66,0a5.35,5.35,0,0,1,2.4.69,3.48,3.48,0,0,1,1.28,1.33,4.09,4.09,0,0,1-.58,4.58,3.51,3.51,0,0,1-.84.65,9.29,9.29,0,0,1-1.36.58,10.69,10.69,0,0,1,1.89.44,4.38,4.38,0,0,1,1.22.67,4.49,4.49,0,0,1,1.26,1.65,5,5,0,0,1,.45,2.12,4.73,4.73,0,0,1-.46,2.11A3.9,3.9,0,0,1,46.46,32Z" transform="translate(-0.55 -6.31)"/></svg>