<svg id="Layer_1" data-name="Layer 1" xmlns="http://www.w3.org/2000/svg" viewBox="0 0 41.72 50"><defs><style>.cls-1{fill:none;stroke:#fff;stroke-miterlimit:10;stroke-width:9px;}.cls-2{fill:#fff;}</style></defs><line class="cls-1" x1="20.83" x2="20.83" y2="50"/><line class="cls-1" x1="1.1" y1="25.1" x2="40.89" y2="25.1"/><path class="cls-2" d="M35.83,0C35.46,2.43,33.54,11.16,25,11.42c-8.34.27-10.27-9-10.63-11.42H4.33c0,.17,0,.33,0,.5.72,7.31,5.9,20.92,20.25,20.92h.68C40,21,45.16,7.54,45.85.49v0c0-.1,0-.25,0-.45Z" transform="translate(-4.17)"/><path class="cls-2" d="M14.22,50c.33-2.29,2.18-11.26,10.83-11.51C33.51,38.2,35.36,47.7,35.69,50H45.74c0-.2,0-.4-.05-.59C45,42,39.62,28.05,24.75,28.49,10.09,28.93,4.91,42.37,4.21,49.42v0c0,.12,0,.31,0,.55Z" transform="translate(-4.17)"/></svg>