<svg width="83" height="48" viewBox="0 0 83 48" fill="none" xmlns="http://www.w3.org/2000/svg">
<rect width="19" height="19" rx="3" fill="#EEEFF1" fill-opacity="0.1"/>
<path d="M5.1665 9.49996H13.8332M9.49984 5.16663V13.8333" stroke="#EEEFF1" stroke-linecap="round" stroke-linejoin="round"/>
<g filter="url(#filter0_b_189_30)">
<rect x="11" y="12" width="71" height="35" rx="3" fill="#EEEFF1" fill-opacity="0.16"/>
<rect x="10.75" y="11.75" width="71.5" height="35.5" rx="3.25" stroke="white" stroke-opacity="0.2" stroke-width="0.5"/>
</g>
<path d="M27.5057 18.1818V24H26.8239L23.6534 19.4318H23.5966V24H22.892V18.1818H23.5739L26.7557 22.7614H26.8125V18.1818H27.5057ZM30.6541 24.0909C30.2337 24.0909 29.871 23.9981 29.5661 23.8125C29.263 23.625 29.0291 23.3636 28.8643 23.0284C28.7015 22.6913 28.62 22.2992 28.62 21.8523C28.62 21.4053 28.7015 21.0114 28.8643 20.6705C29.0291 20.3277 29.2583 20.0606 29.5518 19.8693C29.8473 19.6761 30.192 19.5795 30.5859 19.5795C30.8132 19.5795 31.0376 19.6174 31.2592 19.6932C31.4808 19.7689 31.6825 19.892 31.8643 20.0625C32.0462 20.2311 32.1911 20.4545 32.299 20.733C32.407 21.0114 32.4609 21.3542 32.4609 21.7614V22.0455H29.0973V21.4659H31.7791C31.7791 21.2197 31.7299 21 31.6314 20.8068C31.5348 20.6136 31.3965 20.4612 31.2166 20.3494C31.0386 20.2377 30.8284 20.1818 30.5859 20.1818C30.3189 20.1818 30.0878 20.2481 29.8928 20.3807C29.6996 20.5114 29.5509 20.6818 29.4467 20.892C29.3426 21.1023 29.2905 21.3277 29.2905 21.5682V21.9545C29.2905 22.2841 29.3473 22.5634 29.4609 22.7926C29.5765 23.0199 29.7365 23.1932 29.9411 23.3125C30.1456 23.4299 30.3833 23.4886 30.6541 23.4886C30.8303 23.4886 30.9893 23.464 31.1314 23.4148C31.2753 23.3636 31.3994 23.2879 31.5036 23.1875C31.6077 23.0852 31.6882 22.9583 31.745 22.8068L32.3928 22.9886C32.3246 23.2083 32.21 23.4015 32.049 23.5682C31.888 23.733 31.6892 23.8617 31.4524 23.9545C31.2157 24.0455 30.9496 24.0909 30.6541 24.0909ZM34.4695 24L33.1399 19.6364H33.8445L34.7876 22.9773H34.8331L35.7649 19.6364H36.4808L37.4013 22.9659H37.4467L38.3899 19.6364H39.0945L37.7649 24H37.1058L36.1513 20.6477H36.0831L35.1286 24H34.4695ZM47.0036 20H46.299C46.2573 19.7973 46.1844 19.6193 46.0803 19.4659C45.978 19.3125 45.853 19.1837 45.7053 19.0795C45.5594 18.9735 45.3975 18.8939 45.2195 18.8409C45.0414 18.7879 44.8558 18.7614 44.6626 18.7614C44.3104 18.7614 43.9912 18.8504 43.7053 19.0284C43.4212 19.2064 43.1948 19.4688 43.0263 19.8153C42.8596 20.1619 42.7763 20.5871 42.7763 21.0909C42.7763 21.5947 42.8596 22.0199 43.0263 22.3665C43.1948 22.7131 43.4212 22.9754 43.7053 23.1534C43.9912 23.3314 44.3104 23.4205 44.6626 23.4205C44.8558 23.4205 45.0414 23.3939 45.2195 23.3409C45.3975 23.2879 45.5594 23.2093 45.7053 23.1051C45.853 22.9991 45.978 22.8693 46.0803 22.7159C46.1844 22.5606 46.2573 22.3826 46.299 22.1818H47.0036C46.9505 22.4792 46.8539 22.7453 46.7138 22.9801C46.5736 23.215 46.3994 23.4148 46.1911 23.5795C45.9827 23.7424 45.7488 23.8665 45.4893 23.9517C45.2318 24.0369 44.9562 24.0795 44.6626 24.0795C44.1664 24.0795 43.7251 23.9583 43.3388 23.7159C42.9524 23.4735 42.6484 23.1288 42.4268 22.6818C42.2053 22.2348 42.0945 21.7045 42.0945 21.0909C42.0945 20.4773 42.2053 19.947 42.4268 19.5C42.6484 19.053 42.9524 18.7083 43.3388 18.4659C43.7251 18.2235 44.1664 18.1023 44.6626 18.1023C44.9562 18.1023 45.2318 18.1449 45.4893 18.2301C45.7488 18.3153 45.9827 18.4403 46.1911 18.6051C46.3994 18.768 46.5736 18.9669 46.7138 19.2017C46.8539 19.4347 46.9505 19.7008 47.0036 20ZM48.7216 18.1818V24H48.0511V18.1818H48.7216ZM51.7791 24.0909C51.3587 24.0909 50.996 23.9981 50.6911 23.8125C50.388 23.625 50.1541 23.3636 49.9893 23.0284C49.8265 22.6913 49.745 22.2992 49.745 21.8523C49.745 21.4053 49.8265 21.0114 49.9893 20.6705C50.1541 20.3277 50.3833 20.0606 50.6768 19.8693C50.9723 19.6761 51.317 19.5795 51.7109 19.5795C51.9382 19.5795 52.1626 19.6174 52.3842 19.6932C52.6058 19.7689 52.8075 19.892 52.9893 20.0625C53.1712 20.2311 53.3161 20.4545 53.424 20.733C53.532 21.0114 53.5859 21.3542 53.5859 21.7614V22.0455H50.2223V21.4659H52.9041C52.9041 21.2197 52.8549 21 52.7564 20.8068C52.6598 20.6136 52.5215 20.4612 52.3416 20.3494C52.1636 20.2377 51.9534 20.1818 51.7109 20.1818C51.4439 20.1818 51.2128 20.2481 51.0178 20.3807C50.8246 20.5114 50.6759 20.6818 50.5717 20.892C50.4676 21.1023 50.4155 21.3277 50.4155 21.5682V21.9545C50.4155 22.2841 50.4723 22.5634 50.5859 22.7926C50.7015 23.0199 50.8615 23.1932 51.0661 23.3125C51.2706 23.4299 51.5083 23.4886 51.7791 23.4886C51.9553 23.4886 52.1143 23.464 52.2564 23.4148C52.4003 23.3636 52.5244 23.2879 52.6286 23.1875C52.7327 23.0852 52.8132 22.9583 52.87 22.8068L53.5178 22.9886C53.4496 23.2083 53.335 23.4015 53.174 23.5682C53.013 23.733 52.8142 23.8617 52.5774 23.9545C52.3407 24.0455 52.0746 24.0909 51.7791 24.0909ZM55.8899 24.1023C55.6134 24.1023 55.3625 24.0502 55.1371 23.946C54.9117 23.84 54.7327 23.6875 54.6001 23.4886C54.4676 23.2879 54.4013 23.0455 54.4013 22.7614C54.4013 22.5114 54.4505 22.3087 54.549 22.1534C54.6475 21.9962 54.7791 21.8731 54.9439 21.7841C55.1087 21.6951 55.2905 21.6288 55.4893 21.5852C55.6901 21.5398 55.8918 21.5038 56.0945 21.4773C56.3596 21.4432 56.5746 21.4176 56.7393 21.4006C56.906 21.3816 57.0272 21.3504 57.103 21.3068C57.1806 21.2633 57.2195 21.1875 57.2195 21.0795V21.0568C57.2195 20.7765 57.1428 20.5587 56.9893 20.4034C56.8378 20.2481 56.6077 20.1705 56.299 20.1705C55.9789 20.1705 55.728 20.2405 55.5462 20.3807C55.3643 20.5208 55.2365 20.6705 55.1626 20.8295L54.5263 20.6023C54.6399 20.3371 54.7914 20.1307 54.9808 19.983C55.1721 19.8333 55.3804 19.7292 55.6058 19.6705C55.8331 19.6098 56.0566 19.5795 56.2763 19.5795C56.4164 19.5795 56.5774 19.5966 56.7592 19.6307C56.9429 19.6629 57.12 19.7301 57.2905 19.8324C57.4628 19.9347 57.6058 20.089 57.7195 20.2955C57.8331 20.5019 57.8899 20.7784 57.8899 21.125V24H57.2195V23.4091H57.1854C57.1399 23.5038 57.0642 23.6051 56.9581 23.7131C56.852 23.821 56.7109 23.9129 56.5348 23.9886C56.3587 24.0644 56.1437 24.1023 55.8899 24.1023ZM55.9922 23.5C56.2573 23.5 56.4808 23.4479 56.6626 23.3438C56.8464 23.2396 56.9846 23.1051 57.0774 22.9403C57.1721 22.7756 57.2195 22.6023 57.2195 22.4205V21.8068C57.1911 21.8409 57.1286 21.8722 57.032 21.9006C56.9373 21.9271 56.8274 21.9508 56.7024 21.9716C56.5793 21.9905 56.459 22.0076 56.3416 22.0227C56.2261 22.036 56.1323 22.0473 56.0604 22.0568C55.8861 22.0795 55.7232 22.1165 55.5717 22.1676C55.4221 22.2169 55.3009 22.2917 55.2081 22.392C55.1172 22.4905 55.0717 22.625 55.0717 22.7955C55.0717 23.0284 55.1579 23.2045 55.3303 23.3239C55.5045 23.4413 55.7251 23.5 55.9922 23.5ZM59.7841 21.375V24H59.1136V19.6364H59.7614V20.3182H59.8182C59.9205 20.0966 60.0758 19.9186 60.2841 19.7841C60.4924 19.6477 60.7614 19.5795 61.0909 19.5795C61.3864 19.5795 61.6449 19.6402 61.8665 19.7614C62.0881 19.8807 62.2604 20.0625 62.3835 20.3068C62.5066 20.5492 62.5682 20.8561 62.5682 21.2273V24H61.8977V21.2727C61.8977 20.9299 61.8087 20.6629 61.6307 20.4716C61.4527 20.2784 61.2083 20.1818 60.8977 20.1818C60.6837 20.1818 60.4924 20.2282 60.3239 20.321C60.1572 20.4138 60.0256 20.5492 59.929 20.7273C59.8324 20.9053 59.7841 21.1212 59.7841 21.375ZM65.6229 24.0909C65.2024 24.0909 64.8397 23.9981 64.5348 23.8125C64.2318 23.625 63.9979 23.3636 63.8331 23.0284C63.6702 22.6913 63.5888 22.2992 63.5888 21.8523C63.5888 21.4053 63.6702 21.0114 63.8331 20.6705C63.9979 20.3277 64.227 20.0606 64.5206 19.8693C64.8161 19.6761 65.1607 19.5795 65.5547 19.5795C65.782 19.5795 66.0064 19.6174 66.228 19.6932C66.4496 19.7689 66.6513 19.892 66.8331 20.0625C67.0149 20.2311 67.1598 20.4545 67.2678 20.733C67.3757 21.0114 67.4297 21.3542 67.4297 21.7614V22.0455H64.0661V21.4659H66.7479C66.7479 21.2197 66.6986 21 66.6001 20.8068C66.5036 20.6136 66.3653 20.4612 66.1854 20.3494C66.0073 20.2377 65.7971 20.1818 65.5547 20.1818C65.2876 20.1818 65.0566 20.2481 64.8615 20.3807C64.6683 20.5114 64.5196 20.6818 64.4155 20.892C64.3113 21.1023 64.2592 21.3277 64.2592 21.5682V21.9545C64.2592 22.2841 64.3161 22.5634 64.4297 22.7926C64.5452 23.0199 64.7053 23.1932 64.9098 23.3125C65.1143 23.4299 65.352 23.4886 65.6229 23.4886C65.799 23.4886 65.9581 23.464 66.1001 23.4148C66.2441 23.3636 66.3681 23.2879 66.4723 23.1875C66.5765 23.0852 66.657 22.9583 66.7138 22.8068L67.3615 22.9886C67.2933 23.2083 67.1787 23.4015 67.0178 23.5682C66.8568 23.733 66.6579 23.8617 66.4212 23.9545C66.1844 24.0455 65.9183 24.0909 65.6229 24.0909ZM68.4496 24V19.6364H69.0973V20.2955H69.1428C69.2223 20.0795 69.3662 19.9044 69.5746 19.7699C69.7829 19.6354 70.0178 19.5682 70.2791 19.5682C70.3284 19.5682 70.3899 19.5691 70.4638 19.571C70.5376 19.5729 70.5935 19.5758 70.6314 19.5795V20.2614C70.6087 20.2557 70.5566 20.2472 70.4751 20.2358C70.3956 20.2225 70.3113 20.2159 70.2223 20.2159C70.0102 20.2159 69.8208 20.2604 69.6541 20.3494C69.4893 20.4366 69.3587 20.5578 69.2621 20.7131C69.1674 20.8665 69.12 21.0417 69.12 21.2386V24H68.4496Z" fill="white"/>
<path d="M29.6385 35.1818V41H28.9567L25.7862 36.4318H25.7294V41H25.0249V35.1818H25.7067L28.8885 39.7614H28.9453V35.1818H29.6385ZM32.7869 41.0909C32.3665 41.0909 32.0038 40.9981 31.6989 40.8125C31.3958 40.625 31.1619 40.3636 30.9972 40.0284C30.8343 39.6913 30.7528 39.2992 30.7528 38.8523C30.7528 38.4053 30.8343 38.0114 30.9972 37.6705C31.1619 37.3277 31.3911 37.0606 31.6847 36.8693C31.9801 36.6761 32.3248 36.5795 32.7188 36.5795C32.946 36.5795 33.1705 36.6174 33.392 36.6932C33.6136 36.7689 33.8153 36.892 33.9972 37.0625C34.179 37.2311 34.3239 37.4545 34.4318 37.733C34.5398 38.0114 34.5938 38.3542 34.5938 38.7614V39.0455H31.2301V38.4659H33.9119C33.9119 38.2197 33.8627 38 33.7642 37.8068C33.6676 37.6136 33.5294 37.4612 33.3494 37.3494C33.1714 37.2377 32.9612 37.1818 32.7188 37.1818C32.4517 37.1818 32.2206 37.2481 32.0256 37.3807C31.8324 37.5114 31.6837 37.6818 31.5795 37.892C31.4754 38.1023 31.4233 38.3277 31.4233 38.5682V38.9545C31.4233 39.2841 31.4801 39.5634 31.5938 39.7926C31.7093 40.0199 31.8693 40.1932 32.0739 40.3125C32.2784 40.4299 32.5161 40.4886 32.7869 40.4886C32.9631 40.4886 33.1222 40.464 33.2642 40.4148C33.4081 40.3636 33.5322 40.2879 33.6364 40.1875C33.7405 40.0852 33.821 39.9583 33.8778 39.8068L34.5256 39.9886C34.4574 40.2083 34.3428 40.4015 34.1818 40.5682C34.0208 40.733 33.822 40.8617 33.5852 40.9545C33.3485 41.0455 33.0824 41.0909 32.7869 41.0909ZM36.6023 41L35.2727 36.6364H35.9773L36.9205 39.9773H36.9659L37.8977 36.6364H38.6136L39.5341 39.9659H39.5795L40.5227 36.6364H41.2273L39.8977 41H39.2386L38.2841 37.6477H38.2159L37.2614 41H36.6023ZM44.1364 35.8068V35.1818H48.5V35.8068H46.6705V41H45.9659V35.8068H44.1364ZM50.6932 41.0909C50.2727 41.0909 49.91 40.9981 49.6051 40.8125C49.3021 40.625 49.0682 40.3636 48.9034 40.0284C48.7405 39.6913 48.6591 39.2992 48.6591 38.8523C48.6591 38.4053 48.7405 38.0114 48.9034 37.6705C49.0682 37.3277 49.2973 37.0606 49.5909 36.8693C49.8864 36.6761 50.2311 36.5795 50.625 36.5795C50.8523 36.5795 51.0767 36.6174 51.2983 36.6932C51.5199 36.7689 51.7216 36.892 51.9034 37.0625C52.0852 37.2311 52.2301 37.4545 52.3381 37.733C52.446 38.0114 52.5 38.3542 52.5 38.7614V39.0455H49.1364V38.4659H51.8182C51.8182 38.2197 51.7689 38 51.6705 37.8068C51.5739 37.6136 51.4356 37.4612 51.2557 37.3494C51.0777 37.2377 50.8674 37.1818 50.625 37.1818C50.358 37.1818 50.1269 37.2481 49.9318 37.3807C49.7386 37.5114 49.59 37.6818 49.4858 37.892C49.3816 38.1023 49.3295 38.3277 49.3295 38.5682V38.9545C49.3295 39.2841 49.3864 39.5634 49.5 39.7926C49.6155 40.0199 49.7756 40.1932 49.9801 40.3125C50.1847 40.4299 50.4223 40.4886 50.6932 40.4886C50.8693 40.4886 51.0284 40.464 51.1705 40.4148C51.3144 40.3636 51.4384 40.2879 51.5426 40.1875C51.6468 40.0852 51.7273 39.9583 51.7841 39.8068L52.4318 39.9886C52.3636 40.2083 52.2491 40.4015 52.0881 40.5682C51.9271 40.733 51.7282 40.8617 51.4915 40.9545C51.2547 41.0455 50.9886 41.0909 50.6932 41.0909ZM54.1903 38.375V41H53.5199V36.6364H54.1676V37.3182H54.2244C54.3267 37.0966 54.482 36.9186 54.6903 36.7841C54.8987 36.6477 55.1676 36.5795 55.4972 36.5795C55.7926 36.5795 56.0511 36.6402 56.2727 36.7614C56.4943 36.8807 56.6667 37.0625 56.7898 37.3068C56.9129 37.5492 56.9744 37.8561 56.9744 38.2273V41H56.304V38.2727C56.304 37.9299 56.215 37.6629 56.0369 37.4716C55.8589 37.2784 55.6146 37.1818 55.304 37.1818C55.09 37.1818 54.8987 37.2282 54.7301 37.321C54.5634 37.4138 54.4318 37.5492 54.3352 37.7273C54.2386 37.9053 54.1903 38.1212 54.1903 38.375ZM59.4837 41.1023C59.2071 41.1023 58.9562 41.0502 58.7308 40.946C58.5054 40.84 58.3265 40.6875 58.1939 40.4886C58.0613 40.2879 57.995 40.0455 57.995 39.7614C57.995 39.5114 58.0443 39.3087 58.1428 39.1534C58.2412 38.9962 58.3729 38.8731 58.5376 38.7841C58.7024 38.6951 58.8842 38.6288 59.0831 38.5852C59.2839 38.5398 59.4856 38.5038 59.6882 38.4773C59.9534 38.4432 60.1683 38.4176 60.3331 38.4006C60.4998 38.3816 60.621 38.3504 60.6967 38.3068C60.7744 38.2633 60.8132 38.1875 60.8132 38.0795V38.0568C60.8132 37.7765 60.7365 37.5587 60.5831 37.4034C60.4316 37.2481 60.2015 37.1705 59.8928 37.1705C59.5727 37.1705 59.3217 37.2405 59.1399 37.3807C58.9581 37.5208 58.8303 37.6705 58.7564 37.8295L58.12 37.6023C58.2337 37.3371 58.3852 37.1307 58.5746 36.983C58.7659 36.8333 58.9742 36.7292 59.1996 36.6705C59.4268 36.6098 59.6503 36.5795 59.87 36.5795C60.0102 36.5795 60.1712 36.5966 60.353 36.6307C60.5367 36.6629 60.7138 36.7301 60.8842 36.8324C61.0566 36.9347 61.1996 37.089 61.3132 37.2955C61.4268 37.5019 61.4837 37.7784 61.4837 38.125V41H60.8132V40.4091H60.7791C60.7337 40.5038 60.6579 40.6051 60.5518 40.7131C60.4458 40.821 60.3047 40.9129 60.1286 40.9886C59.9524 41.0644 59.7375 41.1023 59.4837 41.1023ZM59.5859 40.5C59.8511 40.5 60.0746 40.4479 60.2564 40.3438C60.4401 40.2396 60.5784 40.1051 60.6712 39.9403C60.7659 39.7756 60.8132 39.6023 60.8132 39.4205V38.8068C60.7848 38.8409 60.7223 38.8722 60.6257 38.9006C60.531 38.9271 60.4212 38.9508 60.2962 38.9716C60.1731 38.9905 60.0528 39.0076 59.9354 39.0227C59.8198 39.036 59.7261 39.0473 59.6541 39.0568C59.4799 39.0795 59.317 39.1165 59.1655 39.1676C59.0159 39.2169 58.8946 39.2917 58.8018 39.392C58.7109 39.4905 58.6655 39.625 58.6655 39.7955C58.6655 40.0284 58.7517 40.2045 58.924 40.3239C59.0982 40.4413 59.3189 40.5 59.5859 40.5ZM63.3778 38.375V41H62.7074V36.6364H63.3551V37.3182H63.4119C63.5142 37.0966 63.6695 36.9186 63.8778 36.7841C64.0862 36.6477 64.3551 36.5795 64.6847 36.5795C64.9801 36.5795 65.2386 36.6402 65.4602 36.7614C65.6818 36.8807 65.8542 37.0625 65.9773 37.3068C66.1004 37.5492 66.1619 37.8561 66.1619 38.2273V41H65.4915V38.2727C65.4915 37.9299 65.4025 37.6629 65.2244 37.4716C65.0464 37.2784 64.8021 37.1818 64.4915 37.1818C64.2775 37.1818 64.0862 37.2282 63.9176 37.321C63.7509 37.4138 63.6193 37.5492 63.5227 37.7273C63.4261 37.9053 63.3778 38.1212 63.3778 38.375ZM69.2848 36.6364V37.2045H67.0234V36.6364H69.2848ZM67.6825 35.5909H68.353V39.75C68.353 39.9394 68.3804 40.0814 68.4354 40.1761C68.4922 40.2689 68.5642 40.3314 68.6513 40.3636C68.7403 40.3939 68.834 40.4091 68.9325 40.4091C69.0064 40.4091 69.067 40.4053 69.1143 40.3977C69.1617 40.3883 69.1996 40.3807 69.228 40.375L69.3643 40.9773C69.3189 40.9943 69.2554 41.0114 69.174 41.0284C69.0926 41.0473 68.9893 41.0568 68.8643 41.0568C68.675 41.0568 68.4893 41.0161 68.3075 40.9347C68.1276 40.8532 67.978 40.7292 67.8587 40.5625C67.7412 40.3958 67.6825 40.1856 67.6825 39.9318V35.5909Z" fill="white"/>
<defs>
<filter id="filter0_b_189_30" x="6.5" y="7.5" width="80" height="44" filterUnits="userSpaceOnUse" color-interpolation-filters="sRGB">
<feFlood flood-opacity="0" result="BackgroundImageFix"/>
<feGaussianBlur in="BackgroundImageFix" stdDeviation="2"/>
<feComposite in2="SourceAlpha" operator="in" result="effect1_backgroundBlur_189_30"/>
<feBlend mode="normal" in="SourceGraphic" in2="effect1_backgroundBlur_189_30" result="shape"/>
</filter>
</defs>
</svg>
